<svg width="1920" height="1080" viewBox="0 0 1920 1080" fill="none" xmlns="http://www.w3.org/2000/svg">
<rect width="1920" height="1080" fill="#C5E9E8"/>
<path d="M960 477C968.263 477 974.889 484.009 974.889 492.75C974.889 501.491 968.263 508.5 960 508.5C951.737 508.5 945.111 501.491 945.111 492.75C945.111 484.009 951.811 477 960 477ZM1027 571.5V555.75C1010.32 555.75 996.031 548.19 985.311 534.645L975.336 522.045C973.951 520.269 972.211 518.839 970.242 517.859C968.272 516.879 966.122 516.372 963.946 516.375H956.278C951.737 516.375 947.568 518.423 944.739 522.045L934.763 534.645C923.969 548.19 909.676 555.75 893 555.75V571.5C913.621 571.5 931.637 562.286 945.111 545.906V563.625L916.227 575.831C911.239 577.957 907.889 583.312 907.889 588.904C907.889 596.7 913.844 603 921.214 603H937.667V599.062C937.667 593.841 939.627 588.833 943.118 585.141C946.608 581.449 951.342 579.375 956.278 579.375H978.611C980.696 579.375 982.333 581.107 982.333 583.312C982.333 585.518 980.696 587.25 978.611 587.25H956.278C950.099 587.25 945.111 592.526 945.111 599.062V603H998.786C1006.16 603 1012.11 596.7 1012.11 588.904C1012.11 583.312 1008.76 577.957 1003.77 575.831L974.889 563.625V545.906C988.363 562.286 1006.38 571.5 1027 571.5Z" fill="#29A092"/>
</svg>
