<svg width="641" height="596" viewBox="0 0 641 596" fill="none" xmlns="http://www.w3.org/2000/svg">
<path d="M570.602 193.051C562.412 188.299 558.691 192.256 555.65 188.299C552.61 184.341 563.841 174.041 541.496 163.74C541.496 163.74 540.017 141.567 509.482 140.772C478.947 139.977 487.254 162.963 478.947 168.493C470.64 174.023 468.514 165.331 460.324 170.878C452.133 176.426 455.855 187.504 449.16 189.094C442.464 190.684 433.526 182.027 425.336 187.504C417.146 192.981 417.146 197.804 413.408 197.804C409.67 197.804 402.244 194.641 397.775 197.804C393.306 200.966 388.089 204.871 388.089 204.871H576.566C576.566 204.871 578.809 197.804 570.602 193.051Z" fill="#68C8BC"/>
<path opacity="0.5" d="M570.602 193.051C562.412 188.299 558.691 192.256 555.65 188.299C552.61 184.341 563.841 174.041 541.496 163.74C541.496 163.74 540.017 141.567 509.482 140.772C478.947 139.977 487.254 162.963 478.947 168.493C470.64 174.023 468.514 165.331 460.324 170.878C452.133 176.426 455.855 187.504 449.16 189.094C442.464 190.684 433.526 182.027 425.336 187.504C417.146 192.981 417.146 197.804 413.408 197.804C409.67 197.804 402.244 194.641 397.775 197.804C393.306 200.966 388.089 204.871 388.089 204.871H576.566C576.566 204.871 578.809 197.804 570.602 193.051Z" fill="#68C8BC"/>
<path d="M285.353 91.7444C280.502 88.9352 278.292 91.285 276.531 88.9352C274.77 86.5854 281.382 80.49 268.225 74.377C268.225 74.377 267.344 61.2321 249.252 60.7728C231.16 60.3134 235.962 73.9176 231.16 77.2038C226.359 80.49 224.98 75.331 220.113 78.5996C215.245 81.8681 217.471 88.4582 213.467 89.4122C209.464 90.3663 204.197 85.172 199.346 88.4582C194.495 91.7444 194.495 94.5712 192.285 94.5712C190.076 94.5712 185.64 92.6808 183.015 94.5712C180.39 96.4617 177.284 98.7938 177.284 98.7938H288.891C288.891 98.7938 290.221 94.6242 285.353 91.7444Z" fill="#68C8BC"/>
<path opacity="0.5" d="M285.353 91.7444C280.502 88.9352 278.292 91.285 276.531 88.9352C274.77 86.5854 281.382 80.49 268.225 74.377C268.225 74.377 267.344 61.2321 249.252 60.7728C231.16 60.3134 235.962 73.9176 231.16 77.2038C226.359 80.49 224.98 75.331 220.113 78.5996C215.245 81.8681 217.471 88.4582 213.467 89.4122C209.464 90.3663 204.197 85.172 199.346 88.4582C194.495 91.7444 194.495 94.5712 192.285 94.5712C190.076 94.5712 185.64 92.6808 183.015 94.5712C180.39 96.4617 177.284 98.7938 177.284 98.7938H288.891C288.891 98.7938 290.221 94.6242 285.353 91.7444Z" fill="#68C8BC"/>
<path d="M353.417 483.138C339.462 475.029 333.116 481.778 328.032 475.029C322.949 468.28 341.987 450.754 303.927 433.209C303.927 433.209 301.385 395.418 249.369 394.075C197.353 392.733 211.291 431.849 197.336 441.301C183.381 450.753 179.576 435.895 165.621 445.347C151.666 454.799 157.996 473.616 146.583 476.389C135.169 479.163 120.001 464.234 105.98 473.686C91.9582 483.138 92.0246 491.23 85.6784 491.23C79.3321 491.23 66.6396 485.824 59.0972 491.23C51.5548 496.637 42.6002 503.368 42.6002 503.368H363.568C363.568 503.368 367.373 491.23 353.417 483.138Z" fill="#68C8BC"/>
<path opacity="0.5" d="M353.417 483.138C339.462 475.029 333.116 481.778 328.032 475.029C322.949 468.28 341.987 450.754 303.927 433.209C303.927 433.209 301.385 395.418 249.369 394.075C197.353 392.733 211.291 431.849 197.336 441.301C183.381 450.753 179.576 435.895 165.621 445.347C151.666 454.799 157.996 473.616 146.583 476.389C135.169 479.163 120.001 464.234 105.98 473.686C91.9582 483.138 92.0246 491.23 85.6784 491.23C79.3321 491.23 66.6396 485.824 59.0972 491.23C51.5548 496.637 42.6002 503.368 42.6002 503.368H363.568C363.568 503.368 367.373 491.23 353.417 483.138Z" fill="#68C8BC"/>
<g opacity="0.5">
<path opacity="0.5" d="M570.602 193.051C562.412 188.299 558.691 192.256 555.65 188.299C552.61 184.341 563.841 174.041 541.496 163.74C541.496 163.74 540.017 141.567 509.482 140.772C478.947 139.977 487.254 162.963 478.947 168.493C470.64 174.023 468.514 165.331 460.324 170.878C452.133 176.426 455.855 187.504 449.16 189.094C442.464 190.684 433.526 182.027 425.336 187.504C417.146 192.981 417.146 197.804 413.408 197.804C409.67 197.804 402.244 194.641 397.775 197.804C393.306 200.966 388.089 204.871 388.089 204.871H576.566C576.566 204.871 578.809 197.804 570.602 193.051Z" fill="white"/>
<path opacity="0.5" d="M570.602 193.051C562.412 188.299 558.691 192.256 555.65 188.299C552.61 184.341 563.841 174.041 541.496 163.74C541.496 163.74 540.017 141.567 509.482 140.772C478.947 139.977 487.254 162.963 478.947 168.493C470.64 174.023 468.514 165.331 460.324 170.878C452.133 176.426 455.855 187.504 449.16 189.094C442.464 190.684 433.526 182.027 425.336 187.504C417.146 192.981 417.146 197.804 413.408 197.804C409.67 197.804 402.244 194.641 397.775 197.804C393.306 200.966 388.089 204.871 388.089 204.871H576.566C576.566 204.871 578.809 197.804 570.602 193.051Z" fill="white"/>
</g>
<g opacity="0.5">
<path opacity="0.5" d="M285.353 91.7444C280.502 88.9352 278.292 91.285 276.531 88.9352C274.77 86.5854 281.382 80.49 268.225 74.377C268.225 74.377 267.344 61.2321 249.252 60.7728C231.16 60.3134 235.962 73.9176 231.16 77.2038C226.359 80.49 224.98 75.331 220.113 78.5996C215.245 81.8681 217.471 88.4582 213.467 89.4122C209.464 90.3663 204.197 85.172 199.346 88.4582C194.495 91.7444 194.495 94.5712 192.285 94.5712C190.076 94.5712 185.64 92.6808 183.015 94.5712C180.39 96.4617 177.284 98.7938 177.284 98.7938H288.891C288.891 98.7938 290.221 94.6242 285.353 91.7444Z" fill="white"/>
<path opacity="0.5" d="M285.353 91.7444C280.502 88.9352 278.292 91.285 276.531 88.9352C274.77 86.5854 281.382 80.49 268.225 74.377C268.225 74.377 267.344 61.2321 249.252 60.7728C231.16 60.3134 235.962 73.9176 231.16 77.2038C226.359 80.49 224.98 75.331 220.113 78.5996C215.245 81.8681 217.471 88.4582 213.467 89.4122C209.464 90.3663 204.197 85.172 199.346 88.4582C194.495 91.7444 194.495 94.5712 192.285 94.5712C190.076 94.5712 185.64 92.6808 183.015 94.5712C180.39 96.4617 177.284 98.7938 177.284 98.7938H288.891C288.891 98.7938 290.221 94.6242 285.353 91.7444Z" fill="white"/>
</g>
<g opacity="0.5">
<path opacity="0.5" d="M353.417 483.138C339.462 475.029 333.116 481.778 328.032 475.029C322.949 468.28 341.987 450.754 303.927 433.209C303.927 433.209 301.385 395.418 249.369 394.075C197.353 392.733 211.291 431.849 197.336 441.301C183.381 450.753 179.576 435.895 165.621 445.347C151.666 454.799 157.996 473.616 146.583 476.389C135.169 479.163 120.001 464.234 105.98 473.686C91.9582 483.138 92.0246 491.23 85.6784 491.23C79.3321 491.23 66.6396 485.824 59.0972 491.23C51.5548 496.637 42.6002 503.368 42.6002 503.368H363.568C363.568 503.368 367.373 491.23 353.417 483.138Z" fill="white"/>
<path opacity="0.5" d="M353.417 483.138C339.462 475.029 333.116 481.778 328.032 475.029C322.949 468.28 341.987 450.754 303.927 433.209C303.927 433.209 301.385 395.418 249.369 394.075C197.353 392.733 211.291 431.849 197.336 441.301C183.381 450.753 179.576 435.895 165.621 445.347C151.666 454.799 157.996 473.616 146.583 476.389C135.169 479.163 120.001 464.234 105.98 473.686C91.9582 483.138 92.0246 491.23 85.6784 491.23C79.3321 491.23 66.6396 485.824 59.0972 491.23C51.5548 496.637 42.6002 503.368 42.6002 503.368H363.568C363.568 503.368 367.373 491.23 353.417 483.138Z" fill="white"/>
</g>
<path d="M118.888 425.594C118.888 425.594 110.681 417.944 102.192 415.33C93.7026 412.715 83.9174 412.662 75.4612 410.206C67.0051 407.75 61.9547 405.683 61.9547 405.683L61.5227 413.81L118.539 430.188L157.547 418.704L161.435 410.277C157.184 412.381 152.727 413.975 148.144 415.029C139.655 417.167 130.152 417.167 124.886 419.322C119.619 421.478 118.888 425.594 118.888 425.594Z" fill="white" stroke="#263238" stroke-linecap="round" stroke-linejoin="round"/>
<path d="M60.7252 407.52C71.8705 411.146 83.2949 413.717 94.8654 415.206C103.568 416.462 111.831 420.035 118.888 425.594C124.629 421.693 131.237 419.474 138.043 419.163C146.23 418.504 154.306 416.753 162.083 413.951L159.64 419.252L117.742 427.98L59.8613 411.902L60.7252 407.52Z" fill="white" stroke="#263238" stroke-linecap="round" stroke-linejoin="round"/>
<path d="M59.1469 409.358C68.0024 412.967 77.2816 415.268 86.7249 416.195C102.142 417.432 118.456 425.594 118.456 425.594C124.766 422.21 131.694 420.329 138.758 420.082C146.685 420.009 154.571 418.875 162.232 416.708C161.993 417.554 161.934 418.446 162.057 419.319C162.181 420.193 162.484 421.027 162.946 421.761L118.307 431.867L58.8479 413.492L59.1469 409.358Z" fill="white" stroke="#263238" stroke-linecap="round" stroke-linejoin="round"/>
<path d="M58.416 412.732L116.446 428.192V430.312L121.33 430.453V428.015L164.242 420.807C164.242 420.807 166.12 420.347 164.525 422.573C162.93 424.799 135.302 450.453 135.302 450.453L104.634 453.81L58.1169 442.944L58.416 412.732Z" fill="#68C8BC"/>
<path opacity="0.3" d="M116.446 430.347V428.192L58.416 412.732L58.1335 443.05L104.634 453.916L105.465 453.828L117.742 430.383L116.446 430.347Z" fill="black"/>
<path d="M58.416 412.732L116.446 428.192V430.312L121.33 430.453V428.015L164.242 420.807C164.242 420.807 166.12 420.347 164.525 422.573C162.93 424.799 135.302 450.453 135.302 450.453L104.634 453.81L58.1169 442.944L58.416 412.732Z" stroke="#263238" stroke-linecap="round" stroke-linejoin="round"/>
<path d="M116.446 430.347L103.621 453.916L106.079 454.075L121.33 430.489L116.446 430.347Z" fill="#68C8BC" stroke="#263238" stroke-linecap="round" stroke-linejoin="round"/>
<path d="M114.386 574.039C114.386 574.039 111.595 580.258 107.874 583.103C104.152 585.947 99.4009 587.29 95.6463 590.028C93.6069 591.496 91.6539 593.095 89.7984 594.816L88.3032 589.41L113.456 570.983L134.305 573.668L137.528 578.827C135.199 577.988 132.774 577.489 130.318 577.343C125.849 577.007 121.214 578.244 118.274 577.484C117.426 577.252 116.638 576.822 115.966 576.226C115.294 575.63 114.754 574.883 114.386 574.039Z" fill="white" stroke="#263238" stroke-linecap="round" stroke-linejoin="round"/>
<path d="M88.8847 593.739C93.6631 589.917 98.8423 586.697 104.318 584.145C108.552 581.928 112.06 578.406 114.386 574.039C117.571 575.804 121.208 576.424 124.753 575.806C128.925 575.195 133.164 575.327 137.296 576.195L135.252 572.891L113.456 572.537L87.7716 590.859L88.8847 593.739Z" fill="white" stroke="#263238" stroke-linecap="round" stroke-linejoin="round"/>
<path d="M87.8215 592.714C91.4573 589.227 95.6485 586.457 100.198 584.534C107.508 581.707 114.187 574.092 114.187 574.092C117.61 575.515 121.339 575.888 124.952 575.17C128.875 574.193 132.926 573.936 136.93 574.41C136.427 573.314 136.27 572.075 136.482 570.877L113.123 569.887L87.024 589.975L87.8215 592.714Z" fill="white" stroke="#263238" stroke-linecap="round" stroke-linejoin="round"/>
<path d="M86.8745 590.541L112.725 572.59L112.376 571.159L114.752 570.417L115.134 572.06L137.196 571.354C137.196 571.354 138.176 571.354 137.047 570.082C135.917 568.809 118.44 555.082 118.44 555.082L102.94 556.848L81.9736 570.188L86.8745 590.541Z" fill="#68C8BC"/>
<path opacity="0.3" d="M112.442 571.159L112.791 572.59L86.941 590.541L81.9902 570.135L102.956 556.795L103.371 556.742L113.074 570.965L112.442 571.159Z" fill="black"/>
<path d="M86.8745 590.541L112.725 572.59L112.376 571.159L114.752 570.417L115.134 572.06L137.196 571.354C137.196 571.354 138.176 571.354 137.047 570.082C135.917 568.809 118.44 555.082 118.44 555.082L102.94 556.848L81.9736 570.188L86.8745 590.541Z" stroke="#263238" stroke-linecap="round" stroke-linejoin="round"/>
<path d="M112.442 571.159L102.474 556.919L103.637 556.495L114.818 570.417L112.442 571.159Z" fill="#68C8BC" stroke="#263238" stroke-linecap="round" stroke-linejoin="round"/>
<path d="M500.91 383.863L547.825 434.393L447.648 464.411L441.019 413.757L500.91 383.863Z" fill="#68C8BC" stroke="#263238" stroke-linecap="round" stroke-linejoin="round"/>
<path d="M542.426 441.69L438.809 474.075L447.166 415.842L499.448 391.036L542.426 441.69Z" fill="white" stroke="#263238" stroke-linecap="round" stroke-linejoin="round"/>
<path d="M501.907 394.181L540.449 447.185L443.229 477.202L454.526 413.492L501.907 394.181Z" fill="white"/>
<path opacity="0.17" d="M501.907 394.181L540.449 447.185L443.229 477.202L454.526 413.492L501.907 394.181Z" fill="black"/>
<path d="M501.907 394.181L540.449 447.185L443.229 477.202L454.526 413.492L501.907 394.181Z" stroke="#263238" stroke-linecap="round" stroke-linejoin="round"/>
<path d="M501.907 394.181L484.23 459.446L415.235 481.654L441.75 421.584L501.907 394.181Z" fill="white" stroke="#263238" stroke-linecap="round" stroke-linejoin="round"/>
<path d="M479.329 454.234L412.793 477.997L410.816 468.068L472.451 444.57L479.329 454.234Z" fill="white" stroke="#263238" stroke-linecap="round" stroke-linejoin="round"/>
<path d="M500.195 385.294L544.387 434.128L542.426 441.69L501.906 394.181L479.329 454.234L472.451 444.57L500.195 385.294Z" fill="white" stroke="#263238" stroke-linecap="round" stroke-linejoin="round"/>
<path d="M500.91 383.863L472.701 446.407L407.626 469.905L441.019 413.757L500.91 383.863Z" fill="#68C8BC"/>
<path opacity="0.3" d="M500.91 383.863L472.701 446.407L407.626 469.905L441.019 413.757L500.91 383.863Z" fill="black"/>
<path d="M500.91 383.863L472.701 446.407L407.626 469.905L441.019 413.757L500.91 383.863Z" stroke="#263238" stroke-linecap="round" stroke-linejoin="round"/>
<path d="M438.328 419.517L490.676 394.111" stroke="#263238" stroke-linecap="round" stroke-linejoin="round"/>
<path d="M282.944 565.435L330.99 502.573L231.875 497.626L223.984 550.435L282.944 565.435Z" fill="#68C8BC" stroke="#263238" stroke-linecap="round" stroke-linejoin="round"/>
<path d="M325.79 496.566L223.302 490.117L230.147 546.778L281.665 558.58L325.79 496.566Z" fill="white" stroke="#263238" stroke-linecap="round" stroke-linejoin="round"/>
<path d="M284.19 554.781L323.962 491.513L227.788 485.824L237.44 547.272L284.19 554.781Z" fill="white"/>
<path opacity="0.17" d="M284.19 554.781L323.962 491.513L227.788 485.824L237.44 547.272L284.19 554.781Z" fill="black"/>
<path d="M284.19 554.781L323.962 491.513L227.788 485.824L237.44 547.272L284.19 554.781Z" stroke="#263238" stroke-linecap="round" stroke-linejoin="round"/>
<path d="M284.19 554.781L268.225 493.368L199.994 488.439L224.914 542.343L284.19 554.781Z" fill="white" stroke="#263238" stroke-linecap="round" stroke-linejoin="round"/>
<path d="M263.191 499.888L197.452 492.75L195.243 503.262L256.097 511.372L263.191 499.888Z" fill="white" stroke="#263238" stroke-linecap="round" stroke-linejoin="round"/>
<path d="M282.246 564.181L327.551 503.704L325.79 496.566L284.19 554.781L263.191 499.888L256.097 511.372L282.246 564.181Z" fill="white" stroke="#263238" stroke-linecap="round" stroke-linejoin="round"/>
<path d="M282.944 565.435L256.379 509.463L192.103 502.22L223.984 550.435L282.944 565.435Z" fill="#68C8BC"/>
<path opacity="0.3" d="M282.944 565.435L256.379 509.463L192.103 502.22L223.984 550.435L282.944 565.435Z" fill="black"/>
<path d="M282.944 565.435L256.379 509.463L192.103 502.22L223.984 550.435L282.944 565.435Z" stroke="#263238" stroke-linecap="round" stroke-linejoin="round"/>
<path d="M219.083 543.474L271.431 555.188" stroke="#263238" stroke-linecap="round" stroke-linejoin="round"/>
<path d="M321.902 142.734C321.902 142.734 300.139 153.917 291.433 167.468C282.728 181.02 285.27 206.037 298.677 214.129C312.084 222.221 358.883 251.938 391.894 247.698C424.904 243.457 419.821 207.574 403.141 193.299C386.461 179.023 363.967 166.302 363.967 166.302C363.967 166.302 362.887 158.599 361.425 155.896C359.963 153.193 343.3 135.79 321.902 142.734Z" fill="#263238" stroke="#263238" stroke-linecap="round" stroke-linejoin="round"/>
<path d="M410.251 201.744C360.844 185.666 328.298 214.447 318.098 225.472C338.532 236.761 368.635 250.631 391.894 247.645C419.505 244.094 420.452 218.387 410.251 201.744Z" fill="white" stroke="#263238" stroke-linecap="round" stroke-linejoin="round"/>
<path d="M376.659 197.504C376.659 197.504 405.683 222.238 395.515 246.867" stroke="#263238" stroke-linecap="round" stroke-linejoin="round"/>
<path d="M281.399 131.956L269.77 189.641H279.123L302.182 144.182C302.182 144.182 297.68 129.606 281.399 131.956Z" fill="white" stroke="#263238" stroke-linecap="round" stroke-linejoin="round"/>
<path d="M427.562 103.97C418.043 91.603 405.467 80.1367 382.424 78.1755C382.424 78.1755 362.787 77.5218 336.073 89.6066C315.19 99.0412 292.879 119.642 281.399 132.009C291.666 134.783 297.78 139.253 302.199 144.235C306.751 139.624 310.721 135.613 313.645 133.087C323.48 124.589 337.917 117.416 337.917 117.416C337.917 117.416 322.251 140.26 319.177 146.143C316.104 152.027 318.264 161.497 334.528 164.112C350.792 166.726 354.796 163.458 361.242 159.536C367.688 155.613 375.679 152.027 378.753 152.027C384.894 152.49 390.99 150.611 395.947 146.726C403.922 140.843 407.311 124.2 410.069 122.893C411.962 121.992 428.725 145.242 441.783 162.698L442.913 162.08C448.595 158.97 453.03 152.628 456.071 147.045C445.505 130.631 433.726 111.992 427.562 103.97Z" fill="#68C8BC" stroke="#263238" stroke-linecap="round" stroke-linejoin="round"/>
<path d="M372.523 89.1472C372.523 89.1472 366.01 105.808 379.052 112.115" stroke="#263238" stroke-linecap="round" stroke-linejoin="round"/>
<path d="M337.917 117.363L352.072 112.91" stroke="#263238" stroke-linecap="round" stroke-linejoin="round"/>
<path d="M337.734 146.426C337.734 146.426 346.656 154.801 367.539 145.331" stroke="#263238" stroke-linecap="round" stroke-linejoin="round"/>
<path d="M419.222 116.55C414.072 117.274 410.068 122.91 410.068 122.91C416.011 121.564 422.054 120.778 428.127 120.56" stroke="#263238" stroke-linecap="round" stroke-linejoin="round"/>
<path d="M338.382 118.741C338.382 118.741 347.968 118.741 357.222 118.37" stroke="#263238" stroke-linecap="round" stroke-linejoin="round"/>
<path d="M343.516 142.044C343.516 142.044 344.546 148.617 357.903 147.875" stroke="#263238" stroke-linecap="round" stroke-linejoin="round"/>
<path d="M379.052 83.7231C379.052 83.7231 376.908 95.4722 378.437 101.674C379.965 107.875 385.498 115.066 389.501 107.557C393.505 100.048 395.632 91.656 395.632 87.6454C395.632 83.6348 381.809 76.2143 379.052 83.7231Z" fill="white" stroke="#263238" stroke-linecap="round" stroke-linejoin="round"/>
<path d="M410.069 69.0236C410.069 69.0236 418.658 67.0625 426.034 56.9388C433.41 46.8152 423.891 45.5255 420.817 35.7375C417.744 25.9496 428.559 29.2004 412.909 12.2217C397.26 -4.75702 371.758 1.12635 359.747 6.67403C347.736 12.2217 348.118 30.8435 339.495 32.151C330.873 33.4584 327.202 24.6422 316.769 24.6422C306.335 24.6422 295.271 36.3912 299.574 46.1792C303.877 55.9671 312.167 51.7445 312.781 50.1014C313.396 48.4583 308.479 50.4371 308.163 45.5255C307.847 40.6138 319.211 43.2463 322.6 49.7834C325.341 55.0837 320.307 62.6102 320.473 68.1755C320.822 79.3416 333.681 86.4793 341.938 88.0164C353.085 90.0836 366.642 89.3592 376.742 83.4758C389.152 76.232 383.388 61.2144 392.525 57.2922C401.662 53.37 406.347 59.2533 406.347 59.2533L410.069 69.0236Z" fill="#263238" stroke="#263238" stroke-linecap="round" stroke-linejoin="round"/>
<path d="M316.22 30.7022C314.638 29.9712 312.897 29.718 311.188 29.9705C309.48 30.2229 307.87 30.9712 306.535 32.1332" stroke="white" stroke-linecap="round" stroke-linejoin="round"/>
<path d="M398.157 39.8541C398.157 39.8541 398.157 20.4195 385.331 16.462C372.506 12.5044 357.853 30.1015 350.444 41.1968C343.034 52.2922 332.169 49.642 324.178 37.946C323.427 36.8184 322.593 35.7551 321.686 34.7658" stroke="white" stroke-linecap="round" stroke-linejoin="round"/>
<path d="M325.474 76.3027C332.119 80.8433 337.103 82.1508 346.855 78.8999C356.607 75.649 355.411 58.7586 363.95 49.6774C372.489 40.5962 387.774 43.8294 387.774 43.8294C387.774 43.8294 370.679 34.0768 357.238 44.4654C343.798 54.8541 345.011 72.3982 332.8 75.649" stroke="white" stroke-linecap="round" stroke-linejoin="round"/>
<path d="M406.713 41.8682C406.713 41.8682 418.342 38.6174 417.711 27.575" stroke="white" stroke-linecap="round" stroke-linejoin="round"/>
<path d="M311.02 167.062C311.02 167.062 342.586 171.302 358.534 182.963" stroke="white" stroke-linecap="round" stroke-linejoin="round"/>
<path d="M400.051 46.0732C398.085 45.4735 395.998 45.4878 394.039 46.1143C392.08 46.7408 390.332 47.9531 389.003 49.6067C383.786 55.4724 384.019 58.4406 379.666 62.0978C378.368 63.3048 376.732 64.023 375.011 64.1412C373.29 64.2593 371.58 63.7709 370.147 62.7516C368.303 61.7798 366.16 62.4335 365.545 66.9918C364.93 71.5501 370.762 75.1543 371.692 75.1543C372.617 75.2077 373.538 75.3198 374.45 75.49C374.45 75.49 374.45 83.6525 379.666 88.5465C384.883 93.4405 395.333 101.285 402.393 99.6595C409.454 98.0341 412.212 80.7197 412.212 71.9035C411.953 62.9643 410.297 54.1333 407.311 45.7728C405.151 40.6138 400.051 46.0732 400.051 46.0732Z" fill="white" stroke="#263238" stroke-linecap="round" stroke-linejoin="round"/>
<path d="M394.219 65.9141C394.219 67.6809 393.621 69.2003 392.857 69.2003C392.093 69.2003 391.478 67.7339 391.478 65.9141C391.478 64.0943 392.093 62.6456 392.857 62.6456C393.621 62.6456 394.219 64.112 394.219 65.9141Z" fill="#263238"/>
<path d="M405.168 64.8186C405.168 66.5854 404.553 68.1049 403.805 68.1049C403.058 68.1049 402.426 66.6384 402.426 64.8186C402.426 62.9989 403.041 61.5501 403.805 61.5501C404.569 61.5501 405.168 63.0165 405.168 64.8186Z" fill="#263238"/>
<path d="M387.707 59.2887C387.707 59.2887 389.751 56.0201 394.901 57.5219" stroke="#263238" stroke-linecap="round" stroke-linejoin="round"/>
<path d="M400.715 57.5219C400.715 57.5219 404.138 53.5113 407.228 57.5219" stroke="#263238" stroke-linecap="round" stroke-linejoin="round"/>
<path d="M400.383 64.8187C400.383 64.8187 400.715 72.1155 402.775 72.1155C404.835 72.1155 404.138 75.384 401.396 76.4794" stroke="#263238" stroke-linecap="round" stroke-linejoin="round"/>
<path d="M398.655 83.7762C398.655 83.7762 392.492 86.6914 390.099 80.119" stroke="#263238" stroke-linecap="round" stroke-linejoin="round"/>
<path d="M400.101 245.048C400.101 245.048 365.213 212.504 329.062 201.426C292.912 190.348 251.312 195.56 215.179 185.154C179.045 174.748 158.245 160.419 158.245 160.419L156.401 194.924L398.954 264.606L564.887 215.772L581.418 179.96C581.418 179.96 561.216 191.02 525.082 200.136C488.948 209.253 448.462 209.235 425.785 218.299C403.108 227.362 400.101 245.048 400.101 245.048Z" fill="white" stroke="#263238" stroke-linecap="round" stroke-linejoin="round"/>
<path d="M152.729 168.21C152.729 168.21 193.199 194.27 284.373 203.387C344.43 209.376 400.101 245.048 400.101 245.048C424.495 228.461 452.578 219.026 481.505 217.698C529.269 215.754 583.76 195.56 583.76 195.56L573.377 218.299L395.2 255.401L149.058 187.027L152.729 168.21Z" fill="white" stroke="#263238" stroke-linecap="round" stroke-linejoin="round"/>
<path d="M146.001 176.037C180.445 192.582 217.312 202.694 254.984 205.931C320.49 211.143 398.256 244.995 398.256 244.995C398.256 244.995 439.275 221.567 484.645 221.567C518.344 221.261 551.873 216.447 584.441 207.239C583.429 210.838 583.178 214.63 583.706 218.345C584.235 222.059 585.529 225.603 587.498 228.723L397.642 271.744L144.772 193.564L146.001 176.037Z" fill="white" stroke="#263238" stroke-linecap="round" stroke-linejoin="round"/>
<path d="M147.23 191.497L389.684 256.125V265.242L410.501 265.896V255.401L592.964 224.8C592.964 224.8 600.922 222.839 594.193 232.61C587.465 242.38 469.893 351.125 469.893 351.125L339.479 365.453L141.698 319.288L142.878 195.066C142.881 194.502 143.006 193.947 143.241 193.443C143.476 192.938 143.817 192.497 144.236 192.153C144.656 191.809 145.143 191.571 145.662 191.457C146.181 191.344 146.717 191.357 147.23 191.497Z" fill="#68C8BC"/>
<path opacity="0.3" d="M389.684 265.242V256.125L142.928 190.366L141.715 319.288L339.479 365.524L343.018 365.135L395.216 265.419L389.684 265.242Z" fill="black"/>
<path d="M147.23 191.497L389.684 256.125V265.242L410.501 265.896V255.401L592.964 224.8C592.964 224.8 600.922 222.839 594.193 232.61C587.465 242.38 469.893 351.125 469.893 351.125L339.479 365.453L141.698 319.288L142.878 195.066C142.881 194.502 143.006 193.947 143.241 193.443C143.476 192.938 143.817 192.497 144.236 192.153C144.656 191.809 145.143 191.571 145.662 191.457C146.181 191.344 146.717 191.357 147.23 191.497Z" stroke="#263238" stroke-linecap="round" stroke-linejoin="round"/>
<path d="M389.684 265.242L335.193 365.524L345.609 366.16L410.5 265.896L389.684 265.242Z" fill="#68C8BC" stroke="#263238" stroke-linecap="round" stroke-linejoin="round"/>
<path d="M571.549 228.899C571.549 228.899 587.814 232.132 584.425 243.669L594.193 232.645C594.193 232.645 598.662 226.726 596.619 225.578C594.575 224.429 571.549 228.899 571.549 228.899Z" fill="#263238"/>
<path d="M169.708 198.051C169.708 198.051 146.699 204.818 143.127 223.104L142.928 195.065C142.928 195.065 143.625 190.843 147.264 191.532C150.902 192.221 169.708 198.051 169.708 198.051Z" fill="#263238"/>
<path d="M141.931 310.701L153.494 322.415L141.715 319.288L141.931 310.701Z" fill="#263238"/>
<path d="M461.57 351.955L477.252 343.757L468.996 351.372L461.57 351.955Z" fill="#263238"/>
<path d="M456.071 147.062L500.195 203.316L489.081 205.189L441.783 162.786C441.783 162.786 454.027 154.253 456.071 147.062Z" fill="white" stroke="#263238" stroke-linecap="round" stroke-linejoin="round"/>
<path d="M260.4 184.483C260.4 184.483 258.19 181.638 257.625 184.182C257.061 186.726 252.06 195.56 255.964 196.179C259.868 196.797 262.078 186.709 262.078 186.709L260.4 184.483Z" fill="white" stroke="#263238" stroke-linecap="round" stroke-linejoin="round"/>
<path d="M265.683 184.147C265.683 184.147 263.457 181.302 262.908 183.829C262.36 186.355 257.343 195.207 261.247 195.843C265.151 196.479 267.377 186.355 267.377 186.355L265.683 184.147Z" fill="white" stroke="#263238" stroke-linecap="round" stroke-linejoin="round"/>
<path d="M270.983 183.935C270.983 183.935 268.341 180.772 267.66 183.581C266.979 186.391 261.015 196.214 265.683 196.921C270.351 197.627 272.943 186.32 272.943 186.32L270.983 183.935Z" fill="white" stroke="#263238" stroke-linecap="round" stroke-linejoin="round"/>
<path d="M275.601 184.995L284.506 194.111H273.956L275.601 184.995Z" fill="white" stroke="#263238" stroke-linecap="round" stroke-linejoin="round"/>
<path d="M275.601 184.995C275.601 184.995 272.959 181.832 272.278 184.642C271.597 187.451 265.633 197.274 270.301 197.963C274.97 198.652 277.561 187.362 277.561 187.362L275.601 184.995Z" fill="white" stroke="#263238" stroke-linecap="round" stroke-linejoin="round"/>
<path d="M512.174 193.175C512.174 193.175 513.951 189.995 514.882 192.398C515.812 194.801 522.042 202.716 518.304 203.988C514.566 205.26 510.861 195.649 510.861 195.649L512.174 193.175Z" fill="white" stroke="#263238" stroke-linecap="round" stroke-linejoin="round"/>
<path d="M506.957 193.705C506.957 193.705 508.735 190.525 509.665 192.928C510.595 195.331 516.842 203.246 513.087 204.518C509.333 205.79 505.645 196.179 505.645 196.179L506.957 193.705Z" fill="white" stroke="#263238" stroke-linecap="round" stroke-linejoin="round"/>
<path d="M501.707 194.394C501.707 194.394 503.85 190.861 504.914 193.493C505.977 196.126 513.22 204.871 508.834 206.338C504.448 207.804 500.112 197.15 500.112 197.15L501.707 194.394Z" fill="white" stroke="#263238" stroke-linecap="round" stroke-linejoin="round"/>
<path d="M497.305 196.214L489.845 206.709L500.278 204.942L497.305 196.214Z" fill="white" stroke="#263238" stroke-linecap="round" stroke-linejoin="round"/>
<path d="M497.305 196.214C497.305 196.214 499.431 192.68 500.511 195.313C501.591 197.945 508.818 206.673 504.432 208.14C500.046 209.606 495.71 198.97 495.71 198.97L497.305 196.214Z" fill="white" stroke="#263238" stroke-linecap="round" stroke-linejoin="round"/>
<path d="M194.645 290.577L205.277 288.811L194.645 287.044C193.708 286.893 192.842 286.428 192.172 285.715C191.503 285.003 191.065 284.082 190.923 283.086L189.262 271.761L187.601 283.086C187.46 284.079 187.024 284.999 186.358 285.711C185.692 286.423 184.829 286.89 183.896 287.044L173.247 288.811L183.896 290.577C184.826 290.739 185.685 291.209 186.35 291.919C187.015 292.63 187.452 293.545 187.601 294.535L189.262 305.86L190.923 294.535C191.072 293.543 191.512 292.625 192.181 291.915C192.849 291.204 193.711 290.736 194.645 290.577Z" fill="white"/>
<path d="M115.217 367.291L125.866 365.524L115.217 363.757C114.284 363.596 113.423 363.127 112.756 362.417C112.088 361.707 111.647 360.791 111.495 359.8L109.834 348.475L108.173 359.8C108.028 360.794 107.59 361.714 106.921 362.426C106.251 363.137 105.386 363.604 104.451 363.757L93.8021 365.524L104.451 367.291C105.386 367.444 106.251 367.911 106.921 368.622C107.59 369.334 108.028 370.254 108.173 371.248L109.834 382.573L111.495 371.248C111.647 370.257 112.088 369.341 112.756 368.631C113.423 367.921 114.284 367.452 115.217 367.291Z" fill="#68C8BC"/>
<path opacity="0.5" d="M115.217 367.291L125.866 365.524L115.217 363.757C114.284 363.596 113.423 363.127 112.756 362.417C112.088 361.707 111.647 360.791 111.495 359.8L109.834 348.475L108.173 359.8C108.028 360.794 107.59 361.714 106.921 362.426C106.251 363.137 105.386 363.604 104.451 363.757L93.8021 365.524L104.451 367.291C105.386 367.444 106.251 367.911 106.921 368.622C107.59 369.334 108.028 370.254 108.173 371.248L109.834 382.573L111.495 371.248C111.647 370.257 112.088 369.341 112.756 368.631C113.423 367.921 114.284 367.452 115.217 367.291Z" fill="white"/>
<path d="M380.364 414.517L391.013 412.75L380.364 410.983C379.431 410.831 378.568 410.367 377.899 409.659C377.23 408.951 376.79 408.035 376.643 407.043L374.981 395.718L373.32 407.043C373.173 408.035 372.733 408.951 372.064 409.659C371.395 410.367 370.532 410.831 369.599 410.983L358.95 412.75L369.599 414.517C370.532 414.669 371.395 415.133 372.064 415.841C372.733 416.549 373.173 417.465 373.32 418.457L374.981 429.782L376.643 418.457C376.79 417.465 377.23 416.549 377.899 415.841C378.568 415.133 379.431 414.669 380.364 414.517Z" fill="#68C8BC"/>
<path opacity="0.5" d="M380.364 414.517L391.013 412.75L380.364 410.983C379.431 410.831 378.568 410.367 377.899 409.659C377.23 408.951 376.79 408.035 376.643 407.043L374.981 395.718L373.32 407.043C373.173 408.035 372.733 408.951 372.064 409.659C371.395 410.367 370.532 410.831 369.599 410.983L358.95 412.75L369.599 414.517C370.532 414.669 371.395 415.133 372.064 415.841C372.733 416.549 373.173 417.465 373.32 418.457L374.981 429.782L376.643 418.457C376.79 417.465 377.23 416.549 377.899 415.841C378.568 415.133 379.431 414.669 380.364 414.517Z" fill="white"/>
<path d="M101.594 307.044L108.638 305.86L101.594 304.676C100.976 304.575 100.404 304.267 99.9621 303.797C99.5199 303.327 99.2302 302.719 99.1351 302.061L98.0386 294.588L96.9255 302.061C96.8303 302.719 96.5406 303.327 96.0985 303.797C95.6563 304.267 95.0848 304.575 94.4667 304.676L87.4227 305.86L94.4667 307.044C95.0848 307.145 95.6563 307.453 96.0985 307.923C96.5406 308.393 96.8303 309.001 96.9255 309.659L98.0386 317.132L99.1351 309.659C99.2302 309.001 99.5199 308.393 99.9621 307.923C100.404 307.453 100.976 307.145 101.594 307.044Z" fill="#68C8BC"/>
<path opacity="0.5" d="M101.594 307.044L108.638 305.86L101.594 304.676C100.976 304.575 100.404 304.267 99.9621 303.797C99.5199 303.327 99.2302 302.719 99.1351 302.061L98.0386 294.588L96.9255 302.061C96.8303 302.719 96.5406 303.327 96.0985 303.797C95.6563 304.267 95.0848 304.575 94.4667 304.676L87.4227 305.86L94.4667 307.044C95.0848 307.145 95.6563 307.453 96.0985 307.923C96.5406 308.393 96.8303 309.001 96.9255 309.659L98.0386 317.132L99.1351 309.659C99.2302 309.001 99.5199 308.393 99.9621 307.923C100.404 307.453 100.976 307.145 101.594 307.044Z" fill="white"/>
<path d="M558.558 323.581L565.602 322.415L558.558 321.231C557.941 321.127 557.37 320.818 556.929 320.349C556.487 319.879 556.197 319.272 556.099 318.616L554.986 311.125L553.889 318.616C553.792 319.272 553.501 319.879 553.06 320.349C552.618 320.818 552.048 321.127 551.431 321.231L544.387 322.415L551.431 323.581C552.048 323.685 552.618 323.994 553.06 324.463C553.501 324.933 553.792 325.54 553.889 326.196L554.986 333.687L556.099 326.196C556.197 325.54 556.487 324.933 556.929 324.463C557.37 323.994 557.941 323.685 558.558 323.581Z" fill="#68C8BC"/>
<path opacity="0.5" d="M558.558 323.581L565.602 322.415L558.558 321.231C557.941 321.127 557.37 320.818 556.929 320.349C556.487 319.879 556.197 319.272 556.099 318.616L554.986 311.125L553.889 318.616C553.792 319.272 553.501 319.879 553.06 320.349C552.618 320.818 552.048 321.127 551.431 321.231L544.387 322.415L551.431 323.581C552.048 323.685 552.618 323.994 553.06 324.463C553.501 324.933 553.792 325.54 553.889 326.196L554.986 333.687L556.099 326.196C556.197 325.54 556.487 324.933 556.929 324.463C557.37 323.994 557.941 323.685 558.558 323.581Z" fill="white"/>
<path d="M236.643 261.32L243.537 260.171L236.643 259.023C236.038 258.922 235.479 258.62 235.046 258.159C234.613 257.699 234.329 257.104 234.234 256.461L233.137 249.111L232.058 256.461C231.96 257.103 231.675 257.696 231.243 258.156C230.81 258.616 230.253 258.92 229.649 259.023L222.738 260.171L229.649 261.32C230.253 261.423 230.81 261.726 231.243 262.186C231.675 262.646 231.96 263.239 232.058 263.881L233.071 271.302L234.167 263.952C234.253 263.286 234.541 262.668 234.988 262.192C235.435 261.717 236.016 261.41 236.643 261.32Z" fill="white"/>
<path d="M465.058 333.863L471.97 332.697L465.058 331.549C464.455 331.446 463.897 331.143 463.464 330.683C463.032 330.223 462.747 329.629 462.65 328.987L461.57 321.637L460.49 328.987C460.393 329.629 460.108 330.223 459.675 330.683C459.243 331.143 458.685 331.446 458.081 331.549L451.17 332.697L458.081 333.863C458.686 333.964 459.245 334.266 459.678 334.727C460.111 335.187 460.395 335.782 460.49 336.425L461.57 343.757L462.65 336.425C462.744 335.782 463.029 335.187 463.461 334.727C463.894 334.266 464.454 333.964 465.058 333.863Z" fill="white"/>
</svg>
