<svg width="643" height="542" viewBox="0 0 643 542" fill="none" xmlns="http://www.w3.org/2000/svg">
<path d="M116.857 496.464C232.37 556.8 419.723 556.8 535.251 496.464C650.78 436.128 650.764 338.309 535.251 278.004C419.738 217.699 232.402 217.668 116.857 278.004C1.31296 338.34 1.32878 436.143 116.857 496.464Z" fill="#F5F5F5"/>
<path d="M225.471 485.282L70.2567 395.751C69.9214 395.643 69.6289 395.432 69.4213 395.148C69.2137 394.864 69.1019 394.521 69.1019 394.169C69.1019 393.817 69.2137 393.474 69.4213 393.19C69.6289 392.906 69.9214 392.695 70.2567 392.587L244.744 291.89C245.596 291.461 246.536 291.238 247.49 291.238C248.443 291.238 249.384 291.461 250.235 291.89L405.481 381.422C407.064 382.307 407.064 383.715 405.481 384.585L230.946 485.282C230.098 485.712 229.16 485.935 228.209 485.935C227.258 485.935 226.32 485.712 225.471 485.282Z" fill="#EBEBEB"/>
<path d="M572.215 362.759L564.493 358.932C564.706 349.159 566.039 339.443 568.465 329.974C574.225 308.734 592.011 292.159 605.682 291.131C623.326 289.802 618.864 305.539 608.309 311.58C591.441 321.18 577.595 336.917 572.215 362.759Z" fill="#68C8BC"/>
<g opacity="0.2">
<path opacity="0.2" d="M572.215 362.759L564.493 358.932C564.706 349.159 566.039 339.443 568.465 329.974C574.225 308.734 592.011 292.159 605.682 291.131C623.326 289.802 618.864 305.539 608.309 311.58C591.441 321.18 577.595 336.917 572.215 362.759Z" fill="black"/>
</g>
<path d="M570.981 355.611H571.076C571.188 355.601 571.297 355.569 571.396 355.516C571.495 355.464 571.582 355.392 571.653 355.305C571.724 355.218 571.777 355.117 571.808 355.01C571.839 354.902 571.849 354.789 571.836 354.678C570.016 336.569 587.564 304.78 608.024 297.093C608.129 297.055 608.225 296.996 608.306 296.92C608.388 296.844 608.453 296.752 608.499 296.65C608.544 296.549 608.569 296.439 608.572 296.328C608.575 296.216 608.555 296.106 608.515 296.002C608.436 295.791 608.278 295.619 608.073 295.524C607.869 295.429 607.635 295.419 607.423 295.496C586.346 303.404 568.259 336.173 570.142 354.852C570.166 355.059 570.264 355.25 570.418 355.39C570.572 355.53 570.773 355.608 570.981 355.611Z" fill="white"/>
<path d="M567.547 360.087C567.421 357.477 567.547 353.681 567.547 352.748C567.645 349.464 568.415 346.234 569.81 343.259C571.655 339.304 574.799 336.1 578.719 334.181C580.855 333.168 583.292 332.599 584.779 330.717C585.889 329.017 586.573 327.075 586.773 325.055C587.454 321.892 588.767 318.46 591.52 316.704C594.274 314.949 597.85 315.123 601.015 315.819C605.651 316.72 609.971 317.732 614.544 315.961C618.197 314.414 621.944 313.099 625.763 312.023C630.51 310.837 641.254 309.445 642.9 316.198C643.066 317.129 643.025 318.086 642.779 318.999C642.533 319.912 642.088 320.759 641.476 321.481C640.231 322.9 638.787 324.131 637.187 325.134L629.276 330.591C628.353 331.159 627.534 331.881 626.855 332.726C625.272 335.019 625.968 338.198 625.415 340.966C625.094 342.368 624.472 343.684 623.592 344.823C622.713 345.962 621.596 346.896 620.319 347.561C617.745 348.875 614.813 349.319 611.964 348.826C608.151 348.241 602.17 344.761 599.448 349.079C598.647 350.556 598.111 352.162 597.866 353.824C597.623 355.489 596.934 357.057 595.872 358.363C594.195 360.134 591.505 360.466 589.052 360.498C585.632 360.282 582.198 360.532 578.846 361.241C577.485 361.636 576.519 363.25 575.681 364.293C573.608 363.123 571.076 361.937 567.547 360.087Z" fill="#68C8BC"/>
<path d="M569.842 358.932C569.716 358.93 569.593 358.903 569.478 358.853C569.292 358.758 569.15 358.593 569.085 358.395C569.02 358.196 569.036 357.98 569.13 357.793C581.077 334.228 613.974 319.456 633.168 315.265C633.269 315.242 633.374 315.239 633.476 315.257C633.577 315.275 633.675 315.313 633.762 315.369C633.849 315.425 633.924 315.498 633.982 315.583C634.041 315.669 634.081 315.765 634.102 315.866C634.125 315.968 634.128 316.073 634.11 316.176C634.093 316.279 634.055 316.378 633.999 316.466C633.943 316.554 633.87 316.63 633.785 316.69C633.699 316.75 633.603 316.793 633.501 316.815C614.607 320.927 582.248 335.43 570.538 358.505C570.472 358.633 570.372 358.74 570.249 358.815C570.127 358.89 569.986 358.931 569.842 358.932Z" fill="white"/>
<path d="M616.047 336.632C615.869 336.63 615.696 336.569 615.556 336.458C609.417 331.539 600.302 330.037 600.207 330.021C600.104 330.004 600.006 329.966 599.917 329.911C599.829 329.855 599.752 329.783 599.692 329.698C599.631 329.612 599.589 329.516 599.566 329.414C599.543 329.312 599.54 329.207 599.559 329.104C599.574 329.001 599.61 328.903 599.664 328.815C599.718 328.726 599.789 328.65 599.873 328.589C599.957 328.529 600.052 328.486 600.153 328.463C600.254 328.44 600.359 328.437 600.461 328.455C600.856 328.455 610.081 330.037 616.537 335.224C616.7 335.355 616.805 335.545 616.829 335.752C616.853 335.959 616.793 336.168 616.664 336.332C616.59 336.424 616.496 336.499 616.389 336.551C616.282 336.603 616.166 336.63 616.047 336.632Z" fill="white"/>
<path d="M594.353 333.327H594.115C593.916 333.262 593.751 333.12 593.656 332.933C593.561 332.746 593.544 332.53 593.609 332.33C594.55 328.418 594.928 324.392 594.732 320.374C594.716 320.164 594.783 319.956 594.919 319.796C595.056 319.636 595.25 319.536 595.46 319.52C595.67 319.503 595.878 319.57 596.038 319.707C596.199 319.843 596.298 320.038 596.315 320.247C596.514 324.469 596.109 328.697 595.112 332.805C595.056 332.96 594.953 333.094 594.816 333.188C594.68 333.281 594.518 333.33 594.353 333.327Z" fill="white"/>
<path d="M29.8589 342.294C29.6449 341.039 29.147 339.849 28.4031 338.815C27.0853 337.376 25.2819 336.475 23.3396 336.284C21.412 336.101 19.495 335.821 17.5956 335.446C16.1594 335.058 14.8142 334.39 13.6378 333.48C12.4614 332.569 11.477 331.435 10.7414 330.143C10.0058 328.85 9.53364 327.425 9.3521 325.949C9.17057 324.473 9.28328 322.976 9.68373 321.544C10.2059 319.709 11.2661 318.017 11.6933 316.183C13.0225 311.343 9.28814 309.319 5.8544 306.994C3.46503 305.412 -0.47507 302.992 0.0471116 299.56C0.980708 293.155 10.4116 291.542 19.4469 294.104C28.4823 296.666 33.2768 298.691 40.0177 296.872C46.7586 295.053 52.9615 294.658 56.4902 300.668C60.0188 306.677 56.4902 312.308 61.0157 316.483C65.5413 320.658 73.6747 317.796 76.6495 326.906V381.137C76.6495 380.821 75.0672 379.761 74.8615 379.556L70.0194 375.19C68.437 373.846 66.3008 372.597 65.2723 370.873C63.8165 368.485 63.0886 365.654 61.5854 363.25C59.9024 360.354 57.4628 357.97 54.528 356.354C48.7682 353.397 41.8691 353.903 35.9352 351.024C33.7963 350.057 32.0577 348.381 31.014 346.28C30.505 344.99 30.1183 343.656 29.8589 342.294Z" fill="#68C8BC"/>
<path opacity="0.1" d="M29.8589 342.294C29.6449 341.039 29.147 339.849 28.4031 338.815C27.0853 337.376 25.2819 336.475 23.3396 336.284C21.412 336.101 19.495 335.821 17.5956 335.446C16.1594 335.058 14.8142 334.39 13.6378 333.48C12.4614 332.569 11.477 331.435 10.7414 330.143C10.0058 328.85 9.53364 327.425 9.3521 325.949C9.17057 324.473 9.28328 322.976 9.68373 321.544C10.2059 319.709 11.2661 318.017 11.6933 316.183C13.0225 311.343 9.28814 309.319 5.8544 306.994C3.46503 305.412 -0.47507 302.992 0.0471116 299.56C0.980708 293.155 10.4116 291.542 19.4469 294.104C28.4823 296.666 33.2768 298.691 40.0177 296.872C46.7586 295.053 52.9615 294.658 56.4902 300.668C60.0188 306.677 56.4902 312.308 61.0157 316.483C65.5413 320.658 73.6747 317.796 76.6495 326.906V381.137C76.6495 380.821 75.0672 379.761 74.8615 379.556L70.0194 375.19C68.437 373.846 66.3008 372.597 65.2723 370.873C63.8165 368.485 63.0886 365.654 61.5854 363.25C59.9024 360.354 57.4628 357.97 54.528 356.354C48.7682 353.397 41.8691 353.903 35.9352 351.024C33.7963 350.057 32.0577 348.381 31.014 346.28C30.505 344.99 30.1183 343.656 29.8589 342.294Z" fill="black"/>
<path d="M76.9502 369.339C76.7647 369.341 76.5845 369.277 76.4422 369.158C76.2999 369.039 76.2051 368.873 76.1748 368.69C70.4466 336.078 32.2325 305.95 9.47802 300.32C9.37412 300.295 9.27614 300.249 9.1897 300.187C9.10325 300.124 9.03001 300.045 8.97418 299.954C8.91834 299.863 8.881 299.762 8.86427 299.656C8.84755 299.551 8.85178 299.443 8.87672 299.339C8.90165 299.235 8.94681 299.137 9.0096 299.051C9.0724 298.964 9.15162 298.891 9.24272 298.835C9.33382 298.78 9.43502 298.742 9.54055 298.726C9.64609 298.709 9.75388 298.713 9.85778 298.738C33.0078 304.463 71.8866 335.114 77.7255 368.326C77.746 368.428 77.7458 368.533 77.7249 368.635C77.704 368.737 77.6627 368.834 77.6037 368.919C77.5446 369.005 77.4689 369.078 77.3811 369.133C77.2933 369.189 77.1952 369.227 77.0926 369.244L76.9502 369.339Z" fill="white"/>
<path d="M22.849 323.98C22.7281 323.978 22.6089 323.951 22.4996 323.899C22.3904 323.847 22.2937 323.772 22.2161 323.679C22.0876 323.511 22.0305 323.299 22.0571 323.089C22.0838 322.878 22.192 322.687 22.3585 322.556C27.8177 318.254 38.9101 316.973 43.3565 317.258C43.4619 317.264 43.565 317.291 43.6598 317.337C43.7546 317.384 43.8392 317.449 43.9085 317.528C43.9778 317.608 44.0304 317.701 44.0634 317.801C44.0963 317.901 44.1088 318.007 44.1002 318.112C44.0942 318.215 44.0676 318.316 44.022 318.409C43.9763 318.502 43.9125 318.585 43.8344 318.653C43.7562 318.72 43.6653 318.772 43.5669 318.804C43.4685 318.836 43.3647 318.848 43.2616 318.84C38.736 318.539 28.2291 319.947 23.3396 323.806C23.1986 323.914 23.0269 323.975 22.849 323.98Z" fill="white"/>
<path d="M48.1036 322.999C48.0048 323.023 47.9018 323.023 47.803 322.999C47.7063 322.961 47.6181 322.904 47.5435 322.831C47.4689 322.759 47.4093 322.672 47.3681 322.577C47.327 322.481 47.3051 322.379 47.3037 322.275C47.3022 322.171 47.3214 322.068 47.3599 321.971C50.2556 314.965 48.6733 303.119 48.6574 302.992C48.6302 302.783 48.6863 302.571 48.8135 302.403C48.9407 302.234 49.129 302.122 49.3379 302.091C49.5455 302.064 49.7554 302.12 49.9215 302.248C50.0876 302.375 50.1964 302.563 50.224 302.771C50.3031 303.277 51.8855 315.155 48.8315 322.556C48.7667 322.693 48.6632 322.808 48.5339 322.887C48.4045 322.965 48.2549 323.004 48.1036 322.999Z" fill="white"/>
<path d="M73.9437 390.705C72.3613 385.818 64.3071 375.538 49.8442 367.488C37.2802 360.498 17.8804 355.294 19.5893 346.074C21.2983 336.853 39.1474 336.585 51.4899 344.065C66.9813 353.381 75.6843 372.423 76.7128 379.935L73.9437 390.705Z" fill="#68C8BC"/>
<path d="M75.4469 385.644C75.2637 385.648 75.0854 385.586 74.9434 385.47C74.8015 385.354 74.7052 385.192 74.6716 385.012C71.5068 367.994 47.3441 344.872 28.0708 345.378C27.861 345.378 27.6598 345.295 27.5114 345.146C27.363 344.998 27.2797 344.797 27.2797 344.587C27.2797 344.378 27.363 344.176 27.5114 344.028C27.6598 343.88 27.861 343.797 28.0708 343.797C48.0561 343.211 72.9468 367.14 76.2698 384.711C76.3071 384.919 76.2617 385.132 76.1435 385.307C76.0252 385.481 75.8433 385.602 75.6368 385.644H75.4469Z" fill="white"/>
<path d="M559.414 80.0565C559.416 81.321 559.084 82.5636 558.45 83.658C557.816 84.7525 556.904 85.6598 555.806 86.2878L540.188 95.2552C539.29 95.7725 538.29 96.0897 537.258 96.1853C536.226 96.2808 535.185 96.1524 534.207 95.8088C534.019 96.789 533.625 97.7183 533.053 98.536C532.48 99.3536 531.741 100.041 530.884 100.553L530.314 100.886L515.203 109.616L514.775 109.853C513.888 110.282 512.923 110.527 511.939 110.574C510.954 110.62 509.971 110.466 509.047 110.122C508.88 111.173 508.479 112.174 507.874 113.049C507.269 113.925 506.475 114.654 505.55 115.183L491.309 123.407C493.944 127.8 495.419 132.791 495.597 137.91C495.597 143.081 493.524 146.498 490.328 147.763C489.803 148.176 489.223 148.511 488.603 148.759C488.08 149.182 487.492 149.518 486.862 149.756C485.709 150.428 484.554 151.098 483.397 151.764C482.865 152.175 482.28 152.51 481.656 152.761C481.133 153.174 480.552 153.51 479.932 153.757C479.4 154.167 478.814 154.503 478.191 154.753C477.672 155.174 477.09 155.511 476.466 155.75C473.76 157.885 469.789 157.964 465.295 155.37C457.177 150.625 450.579 139.286 450.579 129.875C450.579 125.131 452.256 121.841 454.93 120.465C455.218 120.33 455.514 120.214 455.816 120.117C456.084 119.879 456.369 119.662 456.671 119.469C456.954 119.337 457.245 119.22 457.541 119.121C457.804 118.878 458.09 118.66 458.396 118.472C458.68 118.331 458.977 118.214 459.282 118.125C459.549 117.881 459.834 117.659 460.136 117.46C460.42 117.333 460.71 117.222 461.007 117.128C461.273 116.885 461.559 116.662 461.861 116.464C462.146 116.327 462.443 116.216 462.747 116.132C463.01 115.884 463.296 115.661 463.602 115.468C463.885 115.335 464.176 115.219 464.472 115.12C464.739 114.881 465.025 114.664 465.326 114.471C465.614 114.336 465.91 114.22 466.213 114.123C466.48 113.885 466.765 113.668 467.067 113.475C467.35 113.343 467.641 113.226 467.937 113.127C468.205 112.949 468.485 112.79 468.776 112.652C469.065 112.52 469.361 112.404 469.662 112.304C469.925 112.061 470.211 111.844 470.517 111.656C470.117 111.282 469.694 110.933 469.251 110.612L467.953 109.679L466.671 108.825C466.213 108.524 465.754 108.24 465.279 107.971C463.763 107.097 462.175 106.357 460.532 105.757C460.026 105.567 459.519 105.393 458.949 105.251C457.115 104.678 455.206 104.379 453.285 104.365H452.383H451.718C451.38 104.365 451.048 104.365 450.721 104.365C449.121 104.383 447.545 103.975 446.154 103.183C444.764 102.391 443.609 101.243 442.809 99.8576L442.43 99.2091C442.43 99.2091 445.911 87.221 445.942 87.1735L457.019 80.531C459.207 78.9836 461.626 77.7931 464.187 77.0041C464.62 76.91 465.059 76.8465 465.5 76.8143H465.864C466.428 76.7747 466.994 76.7747 467.558 76.8143H468.159H468.317C469.429 76.9481 470.529 77.1649 471.608 77.4628C475.675 78.6552 479.565 80.3837 483.176 82.6028C484.03 83.0931 484.758 83.5992 485.628 84.1844C484.252 82.9349 482.843 81.7646 481.403 80.6417C480.755 80.1198 480.106 79.6137 479.441 79.0601C479.352 78.9679 479.251 78.8881 479.14 78.8229C478.571 78.3801 477.985 77.953 477.384 77.526C476.324 76.7669 475.248 75.9445 474.14 75.2802L472.684 74.3313C471.941 73.841 471.102 73.3665 470.422 72.9079C469.741 72.4492 468.539 71.7692 467.589 71.2156C458.775 66.1388 450.784 63.9879 443.553 63.9879H442.05L440.357 64.0986C439.929 64.0986 439.518 64.0986 439.091 64.241L438.205 64.3675L437.413 64.494L436.227 64.7154L434.85 65.0476C434.359 65.1741 433.869 65.3006 433.378 65.4588C432.888 65.6169 432.556 65.7118 432.16 65.8383C431.172 66.18 430.135 66.3563 429.09 66.3603C427.491 66.3748 425.916 65.9653 424.526 65.1735C423.136 64.3817 421.981 63.2359 421.178 61.8528L421.004 61.5523L423.71 49.9754C423.71 49.9754 423.71 49.9753 423.9 49.8172C425.15 48.9315 431.321 44.6455 431.812 44.3608C434.716 42.6597 437.767 41.2201 440.926 40.059C442.224 39.5635 443.553 39.1206 444.914 38.7305L446.718 38.2402C447.319 38.0979 447.92 37.9397 448.537 37.8132C449.772 37.5443 451.006 37.3229 452.272 37.1331L453.854 36.9117H454.218L456.117 36.7377C456.135 36.7304 456.153 36.7265 456.172 36.7265C456.191 36.7265 456.21 36.7304 456.228 36.7377L457.984 36.627C458.147 36.6112 458.312 36.6112 458.475 36.627C460.618 36.5645 462.763 36.6279 464.899 36.8168C467.682 37.0882 470.439 37.58 473.143 38.2877C463.578 32.9275 452.965 29.701 442.034 28.83C438.102 28.578 434.155 28.6945 430.245 29.1779C429.264 29.2886 428.267 29.431 427.302 29.6049H427.001C426.4 29.6998 425.831 29.8105 425.245 29.9529C424.248 30.1585 423.267 30.3799 422.286 30.6329C421.305 30.886 420.356 31.1707 419.406 31.4712C418.71 31.6715 418.029 31.8929 417.365 32.1354C416.495 32.4359 415.624 32.768 414.786 33.1002C413.58 33.5908 412.29 33.8432 410.988 33.8435C409.13 33.8325 407.308 33.3345 405.703 32.3992C404.098 31.464 402.767 30.1242 401.842 28.5137L401.62 28.1341C401.747 27.5331 404.643 14.7858 404.643 14.7858H404.722L404.927 14.6276L405.07 14.5169C406.526 13.4415 411.241 9.97785 411.732 9.77224C415.168 7.77032 418.768 6.06148 422.492 4.66383C424.602 3.87305 426.711 3.17717 428.821 2.57618L431.116 1.991L433.505 1.45328C435.959 0.964612 438.436 0.600384 440.926 0.362002C441.765 0.267109 442.604 0.203848 443.458 0.140585C444.313 0.0773233 445.167 0.0456893 446.022 0.0140583C446.876 -0.0175728 447.746 0.0140583 448.617 0.0140583C462.605 0.0140583 477.954 3.82561 493.825 12.9828C500.012 16.5571 505.582 20.0207 510.709 23.5476C511.342 23.9746 511.959 24.4016 512.56 24.8445C514.142 25.9832 515.725 27.1535 517.307 28.3239L519.38 29.9054C520.962 31.1074 522.402 32.3252 523.858 33.5905C524.444 34.0807 524.998 34.571 525.567 35.0771L526.422 35.8363L528.226 37.4969C531.832 40.8752 535.25 44.4497 538.463 48.204L539.698 49.6749C540.331 50.4182 540.948 51.2564 541.565 51.9523C542.53 53.1385 543.495 54.3721 544.445 55.6373L546.106 57.8515C547.277 59.433 548.448 61.0146 549.619 62.8176C550.189 63.6558 550.774 64.494 551.344 65.3639C551.914 66.2337 552.499 67.1036 553.085 68.0051C553.67 68.9066 554.255 69.808 554.825 70.7253C555.996 72.5758 557.183 74.4736 558.37 76.4506C559.034 77.5378 559.394 78.7829 559.414 80.0565Z" fill="#68C8BC"/>
<g opacity="0.2">
<path opacity="0.2" d="M559.414 80.0565C559.416 81.321 559.084 82.5636 558.45 83.658C557.816 84.7525 556.904 85.6598 555.806 86.2878L540.188 95.2552C539.29 95.7725 538.29 96.0897 537.258 96.1853C536.226 96.2808 535.185 96.1524 534.207 95.8088C534.019 96.789 533.625 97.7183 533.053 98.536C532.48 99.3536 531.741 100.041 530.884 100.553L530.314 100.886L515.203 109.616L514.775 109.853C513.888 110.282 512.923 110.527 511.939 110.574C510.954 110.62 509.971 110.466 509.047 110.122C508.88 111.173 508.479 112.174 507.874 113.049C507.269 113.925 506.475 114.654 505.55 115.183L491.309 123.407C493.944 127.8 495.419 132.791 495.597 137.91C495.597 143.081 493.524 146.498 490.328 147.763C489.803 148.176 489.223 148.511 488.603 148.759C488.08 149.182 487.492 149.518 486.862 149.756C485.709 150.428 484.554 151.098 483.397 151.764C482.865 152.175 482.28 152.51 481.656 152.761C481.133 153.174 480.552 153.51 479.932 153.757C479.4 154.167 478.814 154.503 478.191 154.753C477.672 155.174 477.09 155.511 476.466 155.75C473.76 157.885 469.789 157.964 465.295 155.37C457.177 150.625 450.579 139.286 450.579 129.875C450.579 125.131 452.256 121.841 454.93 120.465C455.218 120.33 455.514 120.214 455.816 120.117C456.084 119.879 456.369 119.662 456.671 119.469C456.954 119.337 457.245 119.22 457.541 119.121C457.804 118.878 458.09 118.66 458.396 118.472C458.68 118.331 458.977 118.214 459.282 118.125C459.549 117.881 459.834 117.659 460.136 117.46C460.42 117.333 460.71 117.222 461.007 117.128C461.273 116.885 461.559 116.662 461.861 116.464C462.146 116.327 462.443 116.216 462.747 116.132C463.01 115.884 463.296 115.661 463.602 115.468C463.885 115.335 464.176 115.219 464.472 115.12C464.739 114.881 465.025 114.664 465.326 114.471C465.614 114.336 465.91 114.22 466.213 114.123C466.48 113.885 466.765 113.668 467.067 113.475C467.35 113.343 467.641 113.226 467.937 113.127C468.205 112.949 468.485 112.79 468.776 112.652C469.065 112.52 469.361 112.404 469.662 112.304C469.925 112.061 470.211 111.844 470.517 111.656C470.117 111.282 469.694 110.933 469.251 110.612L467.953 109.679L466.671 108.825C466.213 108.524 465.754 108.24 465.279 107.971C463.763 107.097 462.175 106.357 460.532 105.757C460.026 105.567 459.519 105.393 458.949 105.251C457.115 104.678 455.206 104.379 453.285 104.365H452.383H451.718C451.38 104.365 451.048 104.365 450.721 104.365C449.121 104.383 447.545 103.975 446.154 103.183C444.764 102.391 443.609 101.243 442.809 99.8576L442.43 99.2091C442.43 99.2091 445.911 87.221 445.942 87.1735L457.019 80.531C459.207 78.9836 461.626 77.7931 464.187 77.0041C464.62 76.91 465.059 76.8465 465.5 76.8143H465.864C466.428 76.7747 466.994 76.7747 467.558 76.8143H468.159H468.317C469.429 76.9481 470.529 77.1649 471.608 77.4628C475.675 78.6552 479.565 80.3837 483.176 82.6028C484.03 83.0931 484.758 83.5992 485.628 84.1844C484.252 82.9349 482.843 81.7646 481.403 80.6417C480.755 80.1198 480.106 79.6137 479.441 79.0601C479.352 78.9679 479.251 78.8881 479.14 78.8229C478.571 78.3801 477.985 77.953 477.384 77.526C476.324 76.7669 475.248 75.9445 474.14 75.2802L472.684 74.3313C471.941 73.841 471.102 73.3665 470.422 72.9079C469.741 72.4492 468.539 71.7692 467.589 71.2156C458.775 66.1388 450.784 63.9879 443.553 63.9879H442.05L440.357 64.0986C439.929 64.0986 439.518 64.0986 439.091 64.241L438.205 64.3675L437.413 64.494L436.227 64.7154L434.85 65.0476C434.359 65.1741 433.869 65.3006 433.378 65.4588C432.888 65.6169 432.556 65.7118 432.16 65.8383C431.172 66.18 430.135 66.3563 429.09 66.3603C427.491 66.3748 425.916 65.9653 424.526 65.1735C423.136 64.3817 421.981 63.2359 421.178 61.8528L421.004 61.5523L423.71 49.9754C423.71 49.9754 423.71 49.9753 423.9 49.8172C425.15 48.9315 431.321 44.6455 431.812 44.3608C434.716 42.6597 437.767 41.2201 440.926 40.059C442.224 39.5635 443.553 39.1206 444.914 38.7305L446.718 38.2402C447.319 38.0979 447.92 37.9397 448.537 37.8132C449.772 37.5443 451.006 37.3229 452.272 37.1331L453.854 36.9117H454.218L456.117 36.7377C456.135 36.7304 456.153 36.7265 456.172 36.7265C456.191 36.7265 456.21 36.7304 456.228 36.7377L457.984 36.627C458.147 36.6112 458.312 36.6112 458.475 36.627C460.618 36.5645 462.763 36.6279 464.899 36.8168C467.682 37.0882 470.439 37.58 473.143 38.2877C463.578 32.9275 452.965 29.701 442.034 28.83C438.102 28.578 434.155 28.6945 430.245 29.1779C429.264 29.2886 428.267 29.431 427.302 29.6049H427.001C426.4 29.6998 425.831 29.8105 425.245 29.9529C424.248 30.1585 423.267 30.3799 422.286 30.6329C421.305 30.886 420.356 31.1707 419.406 31.4712C418.71 31.6715 418.029 31.8929 417.365 32.1354C416.495 32.4359 415.624 32.768 414.786 33.1002C413.58 33.5908 412.29 33.8432 410.988 33.8435C409.13 33.8325 407.308 33.3345 405.703 32.3992C404.098 31.464 402.767 30.1242 401.842 28.5137L401.62 28.1341C401.747 27.5331 404.643 14.7858 404.643 14.7858H404.722L404.927 14.6276L405.07 14.5169C406.526 13.4415 411.241 9.97785 411.732 9.77224C415.168 7.77032 418.768 6.06148 422.492 4.66383C424.602 3.87305 426.711 3.17717 428.821 2.57618L431.116 1.991L433.505 1.45328C435.959 0.964612 438.436 0.600384 440.926 0.362002C441.765 0.267109 442.604 0.203848 443.458 0.140585C444.313 0.0773233 445.167 0.0456893 446.022 0.0140583C446.876 -0.0175728 447.746 0.0140583 448.617 0.0140583C462.605 0.0140583 477.954 3.82561 493.825 12.9828C500.012 16.5571 505.582 20.0207 510.709 23.5476C511.342 23.9746 511.959 24.4016 512.56 24.8445C514.142 25.9832 515.725 27.1535 517.307 28.3239L519.38 29.9054C520.962 31.1074 522.402 32.3252 523.858 33.5905C524.444 34.0807 524.998 34.571 525.567 35.0771L526.422 35.8363L528.226 37.4969C531.832 40.8752 535.25 44.4497 538.463 48.204L539.698 49.6749C540.331 50.4182 540.948 51.2564 541.565 51.9523C542.53 53.1385 543.495 54.3721 544.445 55.6373L546.106 57.8515C547.277 59.433 548.448 61.0146 549.619 62.8176C550.189 63.6558 550.774 64.494 551.344 65.3639C551.914 66.2337 552.499 67.1036 553.085 68.0051C553.67 68.9066 554.255 69.808 554.825 70.7253C555.996 72.5758 557.183 74.4736 558.37 76.4506C559.034 77.5378 559.394 78.7829 559.414 80.0565Z" fill="black"/>
</g>
<path d="M479.979 147.02C479.979 156.351 473.397 160.194 465.279 155.481C457.161 150.768 450.563 139.412 450.563 130.002C450.563 125.257 452.24 121.968 454.914 120.592C457.589 119.216 461.244 119.216 465.279 121.525C469.569 124.313 473.138 128.076 475.693 132.508C478.248 136.939 479.717 141.912 479.979 147.02Z" fill="#68C8BC"/>
<path d="M492.258 113.791C485.876 104.559 477.43 96.9401 467.589 91.5386C463.018 88.7975 457.99 86.9011 452.746 85.9399C451.236 85.6741 449.684 85.7815 448.225 86.2529C446.766 86.7243 445.444 87.5453 444.376 88.6444L444.281 88.7551C442.965 90.1204 442.099 91.8555 441.8 93.7271C441.5 95.5988 441.78 97.5173 442.604 99.225C442.712 99.4684 442.834 99.706 442.967 99.9367C443.768 101.322 444.922 102.47 446.312 103.262C447.703 104.054 449.279 104.462 450.879 104.444C451.206 104.444 451.539 104.444 451.876 104.444H452.541H453.443C455.364 104.458 457.273 104.757 459.108 105.33C459.614 105.472 460.12 105.646 460.69 105.836C462.333 106.436 463.922 107.177 465.437 108.05C465.912 108.319 466.371 108.604 466.83 108.904C467.288 109.205 467.7 109.458 468.111 109.758C468.523 110.059 468.982 110.359 469.409 110.691C469.836 111.023 470.279 111.355 470.706 111.703C474.46 114.785 477.791 118.348 480.612 122.3C481.759 123.771 483.43 124.744 485.277 125.015C487.124 125.285 489.004 124.833 490.526 123.753C492.048 122.672 493.094 121.046 493.446 119.214C493.798 117.382 493.429 115.485 492.416 113.918L492.258 113.791Z" fill="#68C8BC"/>
<path d="M517.671 99.6204C504.569 78.4592 491.151 64.6838 471.244 52.9329C464.467 48.8901 456.866 46.4228 449.004 45.7138C441.143 45.0047 433.223 46.072 425.83 48.8367C425.155 49.078 424.512 49.402 423.916 49.8014L423.726 49.9596C421.949 51.2349 420.696 53.1112 420.198 55.2403C419.701 57.3693 419.993 59.6064 421.02 61.5366L421.194 61.8371C421.997 63.2202 423.152 64.366 424.542 65.1577C425.931 65.9495 427.506 66.359 429.106 66.3445C430.151 66.3406 431.188 66.1642 432.176 65.8226C432.571 65.696 432.983 65.5537 433.394 65.443C433.806 65.3323 434.375 65.1583 434.866 65.0318L436.242 64.6997L437.429 64.4782L438.22 64.3517L439.107 64.2252C439.534 64.2252 439.945 64.1145 440.372 64.0829L442.066 63.9721H443.569C450.8 63.9721 458.791 66.1231 467.605 71.1999L470.437 72.8921C471.197 73.3508 472.02 73.8252 472.7 74.3155L474.156 75.2644C475.264 75.992 476.34 76.7511 477.4 77.5103C478.001 77.9373 478.587 78.3643 479.156 78.8071C479.267 78.8723 479.368 78.9521 479.457 79.0444C480.122 79.5188 480.77 80.0249 481.419 80.6259C482.859 81.7488 484.267 82.9192 485.644 84.1686C485.644 84.1686 485.644 84.1686 485.723 84.1686C493.377 90.9747 500.035 98.8221 505.503 107.481C506.339 108.776 507.579 109.76 509.031 110.28C509.955 110.624 510.938 110.778 511.923 110.732C512.908 110.686 513.872 110.44 514.76 110.011L515.187 109.774C516.027 109.284 516.761 108.631 517.344 107.852C517.927 107.074 518.348 106.186 518.581 105.242C518.814 104.298 518.855 103.317 518.702 102.356C518.548 101.396 518.203 100.476 517.687 99.652L517.671 99.6204Z" fill="#68C8BC"/>
<path d="M542.783 85.3547C523.795 53.7236 507.971 39.0626 478.223 21.8553C451.813 6.68821 426.843 6.21374 407.222 13.4573C406.453 13.7494 405.715 14.1204 405.022 14.5644L404.88 14.6751L404.674 14.8332H404.595C402.595 16.3392 401.194 18.5051 400.641 20.9461C400.087 23.3871 400.418 25.9452 401.573 28.1657C401.573 28.3081 401.715 28.4188 401.794 28.5611C402.719 30.1716 404.051 31.5114 405.655 32.4467C407.26 33.382 409.083 33.8799 410.941 33.8909C412.243 33.8906 413.532 33.6382 414.738 33.1476C415.577 32.8155 416.447 32.4834 417.318 32.1829C418.188 31.8824 418.662 31.7242 419.359 31.5186C420.308 31.2181 421.258 30.9334 422.239 30.6804C423.22 30.4273 424.201 30.2059 425.198 30.0003C425.783 29.858 426.353 29.7473 426.954 29.6524H427.255C428.22 29.4784 429.217 29.3361 430.198 29.2254C434.122 28.7154 438.085 28.583 442.034 28.83C453.026 29.666 463.7 32.9055 473.302 38.3193L475.659 39.6478C500.661 54.0716 514.443 66.5342 530.409 92.8513C531.438 94.4009 533.026 95.4935 534.841 95.9009C536.656 96.3084 538.559 95.9992 540.152 95.0379C541.745 94.0767 542.904 92.5376 543.389 90.7421C543.873 88.9466 543.645 87.0335 542.752 85.4022L542.783 85.3547Z" fill="#68C8BC"/>
<path d="M445.816 369.94L494.49 341.851L472.59 272.342L445.816 369.94Z" fill="#37474F"/>
<path d="M443.854 383.715C444.692 383.164 445.326 382.353 445.658 381.406L478.065 269.116L472.59 272.279L439.74 386.024L443.854 383.715Z" fill="#263238"/>
<path d="M435.641 383.715L439.74 386.087L472.59 272.389L467.194 269.226L434.787 381.517C434.693 381.926 434.725 382.355 434.877 382.747C435.029 383.139 435.295 383.476 435.641 383.715Z" fill="#37474F"/>
<path d="M581.773 378.211C581.848 378.661 581.788 379.122 581.603 379.538C581.417 379.954 581.113 380.307 580.729 380.552L576.63 382.924L543.78 231.269L549.255 228.106L577.232 357.303L581.773 378.211Z" fill="#37474F"/>
<path d="M572.516 380.552C571.678 380.012 571.073 379.176 570.823 378.211L538.305 228.106L543.78 231.269L576.63 382.924L572.516 380.552Z" fill="#263238"/>
<path d="M472.59 272.389L505.44 424.045L501.341 421.672C500.504 421.134 499.896 420.306 499.632 419.347L467.194 269.226L472.59 272.389Z" fill="#263238"/>
<path d="M509.554 421.625C509.938 421.385 510.242 421.035 510.426 420.62C510.609 420.206 510.664 419.746 510.582 419.3L478.065 269.226L472.59 272.389L505.44 424.045L509.554 421.625Z" fill="#37474F"/>
<path d="M543.78 224.943L549.255 228.106L472.59 272.342L467.115 269.179L543.78 224.943Z" fill="#37474F"/>
<path d="M549.255 228.106L472.59 272.342L500.582 401.539L577.232 357.303L549.255 228.106Z" fill="#455A64"/>
<path d="M502.892 310.963C502.085 310.963 501.626 310.963 501.531 310.963C501.398 310.949 501.269 310.908 501.152 310.843C501.035 310.778 500.933 310.69 500.851 310.584C500.688 310.372 500.615 310.106 500.645 309.841C500.962 306.946 503.24 299.466 517.292 292.349C528.732 286.544 537.356 288.173 539.049 288.932C539.286 289.04 539.473 289.235 539.57 289.476C539.667 289.718 539.668 289.987 539.571 290.229C539.461 290.514 536.612 297.267 523.937 304.574C513.905 310.347 505.946 310.963 502.892 310.963ZM533.289 290.119C528.015 290.236 522.843 291.596 518.194 294.088C506.516 300.019 503.588 306.108 502.86 308.939C509.966 308.629 516.873 306.506 522.925 302.771C532.134 297.473 535.869 292.538 537.166 290.466C535.889 290.22 534.59 290.103 533.289 290.119Z" fill="white"/>
<path d="M519.412 334.544C517.54 334.557 515.688 334.163 513.984 333.39C506.183 329.847 502.75 319.156 500.645 310.141C500.599 310.007 500.582 309.865 500.594 309.724C500.606 309.583 500.648 309.446 500.717 309.322C500.785 309.198 500.879 309.09 500.992 309.005C501.105 308.92 501.234 308.859 501.372 308.827C501.51 308.794 501.653 308.791 501.792 308.818C501.931 308.844 502.063 308.9 502.18 308.98C502.296 309.061 502.394 309.165 502.468 309.286C502.542 309.407 502.589 309.542 502.607 309.682C504.617 318.191 507.813 328.376 514.823 331.555C518.589 333.263 523.162 332.694 528.431 329.895C543.606 321.844 541.818 303.815 537.657 290.103C537.604 289.972 537.579 289.833 537.583 289.692C537.588 289.552 537.621 289.414 537.682 289.287C537.743 289.16 537.829 289.047 537.936 288.956C538.042 288.864 538.167 288.796 538.302 288.755C538.436 288.714 538.578 288.702 538.717 288.719C538.857 288.736 538.992 288.781 539.112 288.853C539.233 288.925 539.338 289.021 539.42 289.135C539.501 289.25 539.558 289.38 539.587 289.517C545.917 310.22 542.356 324.802 529.381 331.682C526.341 333.433 522.919 334.416 519.412 334.544Z" fill="white"/>
<path d="M541.454 312.513C541.253 312.512 541.057 312.452 540.891 312.339C540.725 312.226 540.596 312.067 540.521 311.881C540.469 311.758 540.443 311.627 540.443 311.494C540.443 311.362 540.47 311.23 540.521 311.108C540.573 310.986 540.648 310.875 540.743 310.782C540.838 310.689 540.951 310.617 541.075 310.568C545.742 308.654 547.689 303.846 547.942 299.987C548.148 296.903 547.277 294.721 546.36 294.167C546.103 294.007 545.815 293.902 545.515 293.862C545.215 293.821 544.909 293.844 544.619 293.93C543.194 294.58 542.034 295.696 541.328 297.093C541.204 297.332 540.99 297.512 540.733 297.594C540.477 297.676 540.198 297.652 539.959 297.528C539.72 297.404 539.54 297.191 539.458 296.934C539.376 296.678 539.4 296.399 539.524 296.16C540.501 294.27 542.099 292.773 544.049 291.922C544.602 291.757 545.184 291.71 545.756 291.783C546.328 291.857 546.879 292.049 547.372 292.349C549.208 293.408 550.236 296.445 549.983 300.067C549.683 304.526 547.404 310.109 541.866 312.371C541.74 312.446 541.6 312.494 541.454 312.513Z" fill="white"/>
<path d="M507.164 292.617L506.879 292.491C506.601 292.392 506.335 292.259 506.088 292.095L505.55 291.7L505.012 291.162C504.601 290.686 504.261 290.153 504 289.581C503.703 288.899 503.495 288.181 503.382 287.446C503.241 286.647 503.188 285.836 503.224 285.026C503.294 283.276 503.614 281.545 504.174 279.886C504.458 279.032 504.807 278.304 505.107 277.482C505.384 276.776 505.612 276.052 505.788 275.315C506.115 274.034 506.115 272.69 505.788 271.409C505.511 270.478 505.024 269.623 504.364 268.91C504.171 268.697 503.965 268.496 503.746 268.309L503.525 268.103C503.902 268.235 504.268 268.399 504.617 268.594C505.583 269.146 506.365 269.971 506.864 270.966C507.551 272.413 507.783 274.034 507.528 275.616C507.416 276.49 507.21 277.349 506.911 278.178C506.626 278.984 506.31 279.759 506.072 280.518C505.835 281.278 505.582 282.1 505.392 282.859C505.21 283.615 505.073 284.381 504.981 285.152C504.893 285.866 504.851 286.584 504.854 287.303C504.875 287.941 504.95 288.576 505.076 289.201C505.207 289.745 505.393 290.275 505.629 290.783C505.824 291.159 506.058 291.514 506.326 291.842C506.502 292.07 506.703 292.277 506.927 292.459L507.164 292.617Z" fill="white"/>
<path d="M511.959 286.845L511.737 286.592C511.525 286.37 511.324 286.138 511.136 285.896C510.856 285.488 510.608 285.06 510.392 284.615C510.117 284.023 509.93 283.394 509.839 282.748C509.702 281.987 509.67 281.21 509.744 280.439C509.807 279.597 509.939 278.761 510.139 277.941C510.519 276.248 511.104 274.556 511.532 272.88C511.753 272.041 511.991 271.171 512.117 270.381C512.263 269.604 512.327 268.814 512.307 268.024C512.262 267.302 512.14 266.586 511.943 265.889C511.555 264.695 510.888 263.611 509.997 262.726C509.671 262.396 509.328 262.085 508.968 261.793C508.65 261.537 508.317 261.299 507.971 261.081C508.382 261.167 508.785 261.289 509.174 261.445C510.232 261.88 511.19 262.525 511.991 263.343C513.15 264.578 513.882 266.152 514.079 267.834C514.13 268.302 514.156 268.772 514.158 269.242C514.156 269.713 514.119 270.184 514.048 270.65C513.908 271.566 513.718 272.474 513.478 273.37C512.972 275.141 512.354 276.833 511.896 278.383C511.658 279.158 511.421 279.965 511.278 280.613C511.129 281.273 511.044 281.946 511.025 282.622C511.001 282.922 511.001 283.223 511.025 283.523C511.029 283.801 511.066 284.077 511.136 284.346C511.219 284.791 511.336 285.23 511.484 285.659C511.769 286.418 511.959 286.845 511.959 286.845Z" fill="white"/>
<path d="M520.14 286.623L519.855 286.497C519.565 286.398 519.292 286.254 519.048 286.07C518.632 285.806 518.259 285.48 517.94 285.105L517.402 284.377C517.244 284.093 517.102 283.792 516.943 283.46C516.657 282.759 516.455 282.026 516.342 281.278C516.209 280.43 516.177 279.57 516.247 278.715C516.342 276.929 516.694 275.166 517.291 273.481C517.592 272.611 517.956 271.804 518.257 271.029C518.557 270.254 518.826 269.448 519.032 268.768C519.43 267.452 519.553 266.068 519.396 264.703C519.306 264.156 519.14 263.624 518.905 263.121C518.719 262.721 518.485 262.344 518.209 261.998C518.032 261.762 517.836 261.54 517.624 261.334L517.418 261.113C517.789 261.28 518.144 261.481 518.478 261.714C518.883 261.986 519.246 262.316 519.554 262.694C519.972 263.192 520.299 263.759 520.52 264.371C521.019 265.903 521.101 267.541 520.757 269.115C520.604 269.987 520.377 270.845 520.076 271.678C519.776 272.516 519.443 273.259 519.19 274.097C518.907 274.879 518.67 275.676 518.478 276.486C518.278 277.257 518.119 278.038 518.004 278.826C517.911 279.561 517.864 280.3 517.861 281.04C517.864 281.699 517.928 282.355 518.051 283.002C518.186 283.545 518.372 284.074 518.605 284.583C518.799 284.973 519.038 285.339 519.317 285.674C519.498 285.903 519.699 286.115 519.918 286.307L520.14 286.623Z" fill="white"/>
<path d="M525.931 358.204C526.153 358.078 526.39 358.204 526.39 358.489C526.188 359.993 525.643 361.431 524.799 362.692C523.954 363.954 522.831 365.004 521.516 365.764C517.909 367.852 515.298 367.029 515.298 362.237C515.294 360.203 515.831 358.203 516.854 356.444C517.877 354.685 519.35 353.23 521.121 352.226C523.542 350.834 524.713 351.688 524.713 352.954C524.696 353.241 524.613 353.52 524.47 353.77C524.327 354.019 524.129 354.233 523.89 354.393C523.399 354.678 523.273 354.535 523.273 354.535C523.346 354.305 523.383 354.065 523.384 353.824C523.384 352.606 522.592 352.242 521.026 353.128C519.737 354.068 518.69 355.301 517.972 356.726C517.254 358.15 516.885 359.725 516.896 361.32C516.896 365.385 519.064 366.302 521.516 364.894C522.666 364.26 523.64 363.35 524.35 362.245C525.06 361.141 525.484 359.877 525.583 358.568C525.666 358.419 525.786 358.293 525.931 358.204Z" fill="white"/>
<path d="M529.207 360.434C527.308 361.542 525.662 361.115 525.662 358.505C525.669 357.3 525.993 356.117 526.601 355.076C527.21 354.036 528.081 353.173 529.128 352.574C531.058 351.451 532.593 351.91 532.593 354.504C532.567 355.696 532.244 356.863 531.652 357.898C531.061 358.934 530.22 359.806 529.207 360.434ZM529.207 359.754C529.644 359.506 530.015 359.157 530.291 358.736C530.566 358.315 530.737 357.835 530.789 357.335C530.21 357.623 529.55 357.703 528.919 357.562C528.288 357.421 527.725 357.067 527.324 356.56C527.324 356.86 527.324 357.192 527.324 357.54C527.324 359.913 527.878 360.529 529.207 359.754ZM527.957 354.82C527.957 356.401 529.333 357.082 530.9 356.607C530.9 356.259 530.9 355.88 530.9 355.453C530.9 353.112 530.52 352.416 529.08 353.254C528.783 353.409 528.527 353.631 528.332 353.903C528.136 354.175 528.008 354.489 527.957 354.82Z" fill="white"/>
<path d="M535.362 349.886V363.265C535.202 363.532 534.972 363.751 534.698 363.898C534.223 364.167 533.796 364.104 533.796 363.345V348.083C533.796 345.252 534.286 343.496 535.932 342.547C537.087 341.883 537.657 342.294 537.657 343.876C537.614 345.732 536.982 347.526 535.853 349L537.435 348.098C537.941 347.814 538.036 347.956 538.036 348.367L535.362 349.886ZM536.945 344.334C536.945 343.148 536.596 342.863 536.106 343.148C535.615 343.433 535.441 344.097 535.394 348.905C536.411 347.577 536.946 345.943 536.913 344.271L536.945 344.334Z" fill="white"/>
<path d="M540.236 347.007V360.387C540.076 360.654 539.846 360.873 539.571 361.02C539.097 361.288 538.669 361.225 538.669 360.482V345.141C538.669 342.31 539.16 340.554 540.805 339.605C541.961 338.941 542.53 339.352 542.53 340.934C542.487 342.79 541.856 344.584 540.726 346.058L542.309 345.157C542.815 344.872 542.91 345.014 542.91 345.425L540.236 347.007ZM541.818 341.456C541.818 340.27 541.47 339.985 540.98 340.27C540.489 340.554 540.315 341.219 540.267 346.042C541.27 344.725 541.804 343.111 541.787 341.456H541.818Z" fill="white"/>
<path d="M550.854 343.986C551.075 343.844 551.218 343.986 551.218 344.334C551.123 345.455 550.755 346.536 550.145 347.482C549.535 348.428 548.703 349.21 547.72 349.759C545.157 351.23 543.559 350.834 543.559 348.351C543.556 347.121 543.874 345.91 544.482 344.84C545.09 343.769 545.966 342.876 547.024 342.247C548.607 341.329 549.129 342.088 549.129 342.99C548.95 344.111 548.506 345.174 547.835 346.09C547.164 347.005 546.284 347.748 545.268 348.257C545.489 349.648 546.423 349.838 547.72 349.079C548.569 348.581 549.277 347.875 549.778 347.029C550.279 346.182 550.557 345.222 550.585 344.239C550.585 344.239 550.6 344.129 550.854 343.986ZM545.204 347.64C545.9 347.237 546.5 346.687 546.962 346.029C547.424 345.37 547.737 344.619 547.879 343.828C547.879 342.911 547.451 342.674 546.739 343.085C545.663 343.702 545.157 344.904 545.157 347.482L545.204 347.64Z" fill="white"/>
<path d="M557.927 339.89C558.164 339.763 558.291 339.89 558.291 340.238C558.203 341.361 557.837 342.444 557.227 343.391C556.616 344.338 555.78 345.119 554.794 345.663C552.246 347.149 550.648 346.754 550.648 344.255C550.645 343.026 550.962 341.818 551.566 340.748C552.171 339.677 553.043 338.783 554.097 338.15C555.68 337.233 556.218 337.992 556.218 338.909C556.035 340.029 555.588 341.09 554.914 342.003C554.24 342.916 553.358 343.655 552.341 344.16C552.578 345.568 553.512 345.742 554.794 344.983C555.644 344.485 556.354 343.78 556.858 342.934C557.362 342.088 557.642 341.127 557.673 340.143C557.673 340.143 557.689 340.032 557.927 339.89ZM552.293 343.559C552.99 343.159 553.589 342.609 554.049 341.95C554.508 341.292 554.817 340.539 554.952 339.748C554.952 338.846 554.54 338.593 553.828 339.004C552.752 339.637 552.246 340.839 552.246 343.401L552.293 343.559Z" fill="white"/>
<path d="M417.776 241.359V322.446C417.795 322.801 417.898 323.147 418.077 323.455C418.256 323.763 418.505 324.024 418.805 324.217L421.558 325.798C421.876 325.962 422.229 326.048 422.587 326.048C422.944 326.048 423.297 325.962 423.615 325.798L426.384 324.217C426.683 324.02 426.932 323.756 427.111 323.445C427.29 323.135 427.393 322.787 427.413 322.43V241.359C427.409 241.046 427.282 240.747 427.061 240.525C426.839 240.304 426.54 240.177 426.226 240.173H418.963C418.648 240.173 418.346 240.298 418.124 240.521C417.901 240.743 417.776 241.045 417.776 241.359Z" fill="#263238"/>
<path d="M426.226 240.173H423.773C423.46 240.177 423.16 240.304 422.939 240.525C422.717 240.747 422.591 241.046 422.587 241.359V325.182C422.587 325.83 423.045 326.099 423.615 325.767L426.384 324.185C426.683 323.988 426.932 323.724 427.111 323.414C427.289 323.103 427.393 322.756 427.413 322.398V241.359C427.409 241.046 427.282 240.747 427.061 240.525C426.839 240.304 426.54 240.177 426.226 240.173Z" fill="#455A64"/>
<path d="M371.223 268.119V349.205C371.242 349.561 371.345 349.907 371.524 350.215C371.702 350.523 371.952 350.784 372.252 350.977L375.005 352.558C375.323 352.722 375.676 352.807 376.033 352.807C376.391 352.807 376.744 352.722 377.062 352.558L379.831 350.977C380.131 350.784 380.38 350.523 380.559 350.215C380.738 349.907 380.841 349.561 380.86 349.205V268.119C380.86 267.805 380.735 267.503 380.512 267.28C380.29 267.058 379.988 266.933 379.673 266.933H372.41C372.095 266.933 371.793 267.058 371.571 267.28C371.348 267.503 371.223 267.805 371.223 268.119Z" fill="#263238"/>
<path d="M379.673 266.933H377.22C376.907 266.937 376.607 267.063 376.386 267.285C376.164 267.507 376.037 267.806 376.033 268.119V351.942C376.033 352.59 376.508 352.859 377.062 352.527L379.831 350.945C380.131 350.753 380.38 350.491 380.559 350.183C380.738 349.876 380.841 349.529 380.86 349.174V268.119C380.86 267.805 380.735 267.503 380.512 267.28C380.289 267.058 379.988 266.933 379.673 266.933Z" fill="#455A64"/>
<path d="M374.309 208.605C374.379 209.172 374.338 209.748 374.186 210.299C374.034 210.85 373.776 211.365 373.424 211.816C373.073 212.267 372.636 212.644 372.139 212.927C371.642 213.209 371.094 213.39 370.527 213.461H369.989C368.928 213.461 367.903 213.074 367.107 212.372C366.312 211.67 365.8 210.702 365.669 209.649C363.169 189.627 366.729 144.805 375.305 119.627C375.508 119.011 375.847 118.449 376.296 117.981C376.745 117.513 377.294 117.152 377.901 116.925C378.509 116.697 379.16 116.608 379.806 116.666C380.452 116.723 381.077 116.924 381.635 117.255C382.507 117.758 383.176 118.551 383.526 119.495C383.876 120.44 383.884 121.476 383.55 122.426C375.274 146.165 371.903 189.326 374.309 208.605Z" fill="#455A64"/>
<path d="M424.77 220.198C424.189 220.198 423.622 220.014 423.15 219.673C422.679 219.333 422.327 218.852 422.144 218.3C416.558 201.219 387.49 185.182 369.087 185.182C368.352 185.182 367.648 184.891 367.129 184.372C366.61 183.853 366.318 183.149 366.318 182.415C366.318 181.681 366.61 180.977 367.129 180.458C367.648 179.939 368.352 179.647 369.087 179.647C389.452 179.647 420.989 197.044 427.413 216.481C427.527 216.827 427.571 217.192 427.543 217.555C427.516 217.918 427.417 218.272 427.252 218.596C427.088 218.921 426.861 219.21 426.584 219.447C426.307 219.684 425.987 219.864 425.641 219.977C425.365 220.099 425.071 220.174 424.77 220.198Z" fill="#37474F"/>
<path d="M427.745 194.893C427.161 194.894 426.591 194.709 426.119 194.365C425.647 194.021 425.296 193.536 425.118 192.979C419.264 175.234 389.484 160.336 371.508 162.187C370.789 162.24 370.078 162.012 369.525 161.55C368.972 161.087 368.621 160.428 368.547 159.711C368.473 158.995 368.681 158.278 369.128 157.712C369.574 157.147 370.224 156.777 370.938 156.683C391.256 154.611 423.694 170.996 430.372 191.256C430.486 191.601 430.53 191.966 430.502 192.329C430.475 192.692 430.376 193.046 430.211 193.371C430.047 193.695 429.819 193.984 429.543 194.221C429.266 194.458 428.946 194.638 428.6 194.751C428.324 194.844 428.036 194.892 427.745 194.893Z" fill="#37474F"/>
<path d="M434.439 175.329C433.907 175.336 433.385 175.191 432.934 174.911C432.482 174.63 432.12 174.227 431.891 173.748C423.362 154.342 392.095 137.752 375.875 139.997C375.505 140.073 375.122 140.071 374.752 139.993C374.382 139.915 374.032 139.762 373.723 139.544C373.415 139.325 373.154 139.046 372.958 138.723C372.761 138.4 372.633 138.04 372.581 137.666C372.529 137.291 372.554 136.91 372.655 136.546C372.756 136.181 372.931 135.842 373.169 135.547C373.406 135.253 373.701 135.011 374.036 134.835C374.371 134.659 374.739 134.554 375.116 134.525C393.503 131.979 427.429 149.819 436.97 171.534C437.117 171.866 437.197 172.224 437.205 172.587C437.213 172.95 437.148 173.311 437.016 173.649C436.884 173.987 436.686 174.296 436.433 174.557C436.181 174.818 435.88 175.027 435.546 175.171C435.192 175.298 434.815 175.352 434.439 175.329Z" fill="#37474F"/>
<path d="M440.942 151.559C441.863 152.094 442.553 152.95 442.883 153.962C443.213 154.974 443.159 156.072 442.73 157.047C432.73 180.406 427.46 208.953 427.46 240.205V244.396L427.128 244.744C426.959 244.921 426.755 245.06 426.529 245.152C426.302 245.245 426.059 245.289 425.815 245.281C425.187 245.243 424.57 245.093 423.995 244.839C423.706 244.724 423.41 244.629 423.109 244.554C421.955 244.554 420.848 244.096 420.032 243.28C419.216 242.464 418.757 241.358 418.757 240.205C418.757 207.783 424.28 178.081 434.755 153.615C434.994 153.047 435.35 152.537 435.801 152.118C436.253 151.699 436.788 151.38 437.372 151.184C437.956 150.988 438.575 150.919 439.188 150.981C439.801 151.042 440.393 151.234 440.926 151.543L440.942 151.559Z" fill="#455A64"/>
<path d="M427.413 243.368V244.428C427.358 245.398 427.102 246.346 426.66 247.212C426.219 248.077 425.602 248.842 424.85 249.457L378.581 282.859C377.798 283.37 376.893 283.664 375.959 283.712C375.025 283.759 374.095 283.558 373.264 283.128L308.071 245.503C307.276 244.98 306.615 244.278 306.14 243.455C305.665 242.631 305.388 241.708 305.333 240.758V239.667C305.378 238.732 305.667 237.825 306.173 237.036C306.678 236.248 307.382 235.606 308.213 235.175L366.761 208.147C367.66 207.79 368.625 207.63 369.591 207.676C370.557 207.722 371.502 207.974 372.362 208.416L424.691 238.623C425.484 239.147 426.143 239.849 426.615 240.673C427.088 241.497 427.361 242.42 427.413 243.368Z" fill="#263238"/>
<path d="M424.675 238.623L372.347 208.416C371.486 207.974 370.541 207.722 369.575 207.676C368.609 207.63 367.644 207.79 366.745 208.147L308.197 235.175C306.615 235.903 306.615 237.2 308.055 238.085L373.28 275.711C374.111 276.14 375.041 276.341 375.975 276.294C376.909 276.247 377.814 275.953 378.597 275.442L424.834 242.055C425.153 241.887 425.417 241.632 425.596 241.319C425.775 241.006 425.862 240.649 425.845 240.289C425.828 239.929 425.71 239.581 425.502 239.286C425.295 238.991 425.008 238.761 424.675 238.623Z" fill="#37474F"/>
<path d="M86.6342 243.099V324.169C86.6155 324.527 86.5126 324.875 86.3339 325.186C86.1552 325.496 85.9057 325.76 85.6057 325.956L82.8365 327.538C82.5212 327.702 82.1712 327.787 81.8159 327.787C81.4607 327.787 81.1106 327.702 80.7953 327.538L78.0261 325.956C77.7261 325.76 77.4767 325.496 77.2979 325.186C77.1192 324.875 77.0163 324.527 76.9976 324.169V243.099C76.9955 242.943 77.0247 242.787 77.0836 242.642C77.1425 242.498 77.2298 242.366 77.3405 242.255C77.4511 242.145 77.5828 242.058 77.7277 241.999C77.8727 241.94 78.0279 241.911 78.1844 241.913H85.4474C85.6039 241.911 85.7592 241.94 85.9041 241.999C86.0491 242.058 86.1807 242.145 86.2914 242.255C86.402 242.366 86.4893 242.498 86.5482 242.642C86.6071 242.787 86.6363 242.943 86.6342 243.099Z" fill="#263238"/>
<path d="M78.1844 241.913H80.637C80.9518 241.913 81.2537 242.038 81.4762 242.26C81.6988 242.483 81.8238 242.784 81.8238 243.099V326.921C81.8238 327.586 81.3649 327.854 80.8111 327.522L78.042 325.941C77.742 325.745 77.4925 325.481 77.3138 325.17C77.135 324.86 77.0321 324.511 77.0134 324.154V243.099C77.0113 242.944 77.0401 242.79 77.098 242.646C77.1559 242.502 77.2418 242.371 77.3507 242.261C77.4597 242.151 77.5895 242.063 77.7326 242.003C77.8757 241.944 78.0293 241.913 78.1844 241.913Z" fill="#455A64"/>
<path d="M133.188 269.859V350.929C133.169 351.287 133.066 351.635 132.887 351.946C132.708 352.256 132.459 352.52 132.159 352.716L129.39 354.298C129.07 354.455 128.718 354.536 128.361 354.536C128.005 354.536 127.653 354.455 127.333 354.298L124.579 352.716C124.279 352.52 124.03 352.256 123.851 351.946C123.673 351.635 123.57 351.287 123.551 350.929V269.859C123.549 269.702 123.578 269.547 123.637 269.402C123.696 269.258 123.783 269.126 123.894 269.015C124.004 268.905 124.136 268.817 124.281 268.759C124.426 268.7 124.581 268.671 124.738 268.673H132.001C132.315 268.673 132.617 268.798 132.84 269.02C133.062 269.243 133.188 269.544 133.188 269.859Z" fill="#263238"/>
<path d="M124.738 268.673H127.175C127.331 268.671 127.486 268.7 127.631 268.759C127.776 268.817 127.908 268.905 128.018 269.015C128.129 269.126 128.216 269.258 128.275 269.402C128.334 269.547 128.363 269.702 128.361 269.859V353.681C128.361 354.345 127.902 354.599 127.333 354.282L124.579 352.701C124.279 352.505 124.03 352.241 123.851 351.93C123.673 351.62 123.57 351.271 123.551 350.913V269.859C123.549 269.702 123.578 269.547 123.637 269.402C123.696 269.258 123.783 269.126 123.894 269.015C124.004 268.905 124.136 268.817 124.281 268.759C124.426 268.7 124.581 268.671 124.738 268.673Z" fill="#455A64"/>
<path d="M130.149 210.329C130.078 210.896 130.12 211.472 130.272 212.023C130.424 212.573 130.682 213.089 131.034 213.54C131.385 213.991 131.822 214.368 132.319 214.65C132.816 214.933 133.364 215.114 133.931 215.184H134.469C135.53 215.185 136.555 214.798 137.351 214.096C138.146 213.394 138.658 212.425 138.789 211.373C141.289 191.35 137.729 146.529 129.152 121.351C128.266 118.757 125.766 118.188 123.393 119.564C121.589 120.608 120.228 122.189 120.972 124.166C129.137 147.889 132.507 191.05 130.149 210.329Z" fill="#68C8BC"/>
<path d="M79.6402 221.78C79.2015 221.785 78.7678 221.686 78.3757 221.489C77.9836 221.293 77.6445 221.005 77.387 220.65C77.1296 220.295 76.9612 219.883 76.8962 219.449C76.8312 219.016 76.8714 218.573 77.0134 218.158C83.3429 198.657 114.99 181.308 135.34 181.308C136.074 181.308 136.778 181.599 137.298 182.118C137.817 182.637 138.109 183.341 138.109 184.075C138.109 184.809 137.817 185.513 137.298 186.032C136.778 186.551 136.074 186.843 135.34 186.843C116.921 186.843 87.8685 202.864 82.2669 219.882C82.0883 220.436 81.7372 220.92 81.2648 221.261C80.7923 221.602 80.2231 221.784 79.6402 221.78Z" fill="#37474F"/>
<path d="M76.6654 196.57C76.3697 196.567 76.0761 196.519 75.7951 196.427C75.0987 196.196 74.5227 195.698 74.1933 195.043C73.864 194.388 73.8084 193.628 74.0386 192.932C80.7004 172.672 113.171 156.272 133.472 158.375C134.187 158.47 134.836 158.839 135.283 159.404C135.729 159.97 135.937 160.687 135.863 161.404C135.789 162.12 135.438 162.78 134.886 163.242C134.333 163.704 133.621 163.933 132.903 163.879C114.943 162.044 85.1469 176.911 79.2921 194.672C79.1093 195.224 78.7571 195.704 78.2856 196.045C77.8141 196.386 77.2472 196.569 76.6654 196.57Z" fill="#37474F"/>
<path d="M70.0194 177.069C69.5595 177.065 69.1078 176.948 68.7045 176.727C68.3012 176.506 67.9589 176.189 67.7082 175.803C67.4574 175.418 67.3061 174.977 67.2676 174.519C67.2291 174.061 67.3047 173.6 67.4876 173.178C76.9818 151.464 110.971 133.64 129.342 136.17C130.07 136.271 130.729 136.656 131.172 137.242C131.616 137.828 131.809 138.566 131.708 139.294C131.607 140.021 131.221 140.679 130.635 141.123C130.049 141.566 129.311 141.759 128.583 141.658C112.332 139.396 81.1118 156.003 72.5512 175.408C72.3344 175.9 71.9801 176.318 71.5308 176.613C71.0816 176.907 70.5567 177.066 70.0194 177.069Z" fill="#37474F"/>
<path d="M63.4526 153.282C62.5309 153.821 61.8395 154.679 61.5098 155.694C61.1802 156.709 61.2352 157.809 61.6645 158.786C71.6809 182.146 76.9501 210.677 76.9501 241.929V246.12L77.2824 246.468C77.4513 246.644 77.6555 246.784 77.8818 246.876C78.1081 246.969 78.3514 247.013 78.5958 247.005C79.2239 246.967 79.8401 246.817 80.4155 246.562C80.7042 246.448 81.0002 246.353 81.3017 246.278C82.4558 246.278 83.5626 245.82 84.3787 245.004C85.1947 244.188 85.6532 243.082 85.6532 241.929C85.6532 209.523 80.1307 179.805 69.6396 155.338C69.3988 154.775 69.0415 154.268 68.5912 153.852C68.1408 153.436 67.6075 153.12 67.0263 152.924C66.4451 152.729 65.8291 152.658 65.2186 152.717C64.6082 152.776 64.0171 152.963 63.4842 153.267L63.4526 153.282Z" fill="#455A64"/>
<path d="M76.9976 245.107V246.167C77.0451 247.132 77.2933 248.076 77.7265 248.939C78.1598 249.802 78.7684 250.566 79.5136 251.181L125.75 284.599C126.537 285.102 127.441 285.392 128.373 285.439C129.305 285.486 130.234 285.289 131.067 284.868L196.276 247.227C197.077 246.709 197.744 246.009 198.223 245.185C198.701 244.36 198.978 243.434 199.03 242.482V241.391C198.978 240.458 198.685 239.554 198.18 238.767C197.676 237.98 196.976 237.336 196.15 236.899L137.602 209.886C136.702 209.528 135.735 209.365 134.766 209.409C133.798 209.452 132.85 209.701 131.985 210.139L79.7351 240.363C78.9363 240.881 78.2717 241.582 77.7958 242.406C77.32 243.231 77.0465 244.157 76.9976 245.107Z" fill="#263238"/>
<path d="M79.7352 240.363L132.048 210.139C132.913 209.701 133.861 209.452 134.83 209.409C135.798 209.365 136.765 209.528 137.666 209.886L196.213 236.899C197.796 237.643 197.796 238.939 196.34 239.809L131.13 277.45C130.297 277.872 129.369 278.069 128.436 278.022C127.504 277.974 126.6 277.685 125.814 277.181L79.5136 243.795C79.1912 243.626 78.9246 243.367 78.7464 243.05C78.5681 242.732 78.4857 242.37 78.5091 242.007C78.5325 241.644 78.6608 241.295 78.8784 241.003C79.096 240.712 79.3936 240.489 79.7352 240.363Z" fill="#37474F"/>
<path d="M228.636 330.037C238.921 344.619 247.213 348.177 250.045 351.356C252.878 354.535 250.979 360.545 243.716 361.731C236.453 362.917 228.747 360.909 224.253 356.133C219.759 351.356 216.768 345.188 212.148 341.646C207.527 338.103 205.138 337.122 204.568 333.105C203.998 329.088 207.97 317.29 207.97 317.29L228.636 330.037Z" fill="#68C8BC"/>
<path d="M224.205 308.196C223.018 313.32 221.768 317.796 225.06 324.138C226.136 326.172 227.33 328.142 228.636 330.037C234.633 338.688 239.523 345.457 240.393 346.643C241.263 347.829 235.804 351.388 229.791 348.62C223.778 345.852 218.889 336.711 215.107 331.223C213.414 328.74 211.768 326.478 210.439 324.755C208.682 322.43 207.828 319.547 208.033 316.641L208.635 308.401L224.205 308.196Z" fill="#FFA8A7"/>
<path d="M190.627 347.893C200.913 362.475 209.204 366.049 212.053 369.228C214.901 372.407 212.97 378.401 205.723 379.587C198.476 380.773 190.754 378.78 186.276 374.004C181.798 369.228 178.776 363.06 174.155 359.517C169.534 355.974 167.145 354.994 166.575 350.977C166.006 346.96 169.993 335.161 169.993 335.161L190.627 347.893Z" fill="#37474F"/>
<path d="M186.197 326.067C185.01 331.191 183.76 335.667 187.067 341.994C188.125 344.035 189.314 346.005 190.627 347.893C196.625 356.56 201.514 363.329 202.384 364.515C203.255 365.701 197.796 369.259 191.798 366.476C185.801 363.692 180.88 354.583 177.098 349.079C175.421 346.596 173.759 344.334 172.446 342.61C170.675 340.286 169.814 337.395 170.025 334.481L170.626 326.257L186.197 326.067Z" fill="#FFA8A7"/>
<path d="M134.248 110.391C125.896 110.391 117.887 107.075 111.982 101.172C106.076 95.2701 102.759 87.2649 102.759 78.9177V78.6489C102.759 71.2455 105.701 64.1454 110.939 58.9104C116.176 53.6754 123.28 50.7344 130.687 50.7344H137.792C141.461 50.7324 145.095 51.4529 148.485 52.8548C151.875 54.2567 154.956 56.3125 157.551 58.9048C160.146 61.4971 162.205 64.5751 163.609 67.9628C165.014 71.3506 165.737 74.9818 165.737 78.6489V78.9177C165.737 83.0508 164.922 87.1434 163.34 90.9619C161.757 94.7804 159.438 98.2499 156.514 101.172C153.59 104.095 150.119 106.413 146.298 107.995C142.478 109.577 138.383 110.391 134.248 110.391Z" fill="#37474F"/>
<path d="M165.626 185.625C163.553 183.949 161.338 180.991 159.202 174.823C157.73 170.569 144.122 132.311 141.954 123.075C141.954 123.075 140.023 120.418 145.119 117.033C151.907 116.258 157.777 116.29 162.525 128.927C167.272 141.563 176.861 171.47 176.861 171.47" fill="#FFA8A7"/>
<path d="M98.2647 210.313C94.8151 216.56 91.9352 228.454 95.2265 237.975C97.0779 243.241 121.81 270.444 139.232 268.167C169.297 264.26 197.147 224.358 197.147 224.358L157.303 201.631L98.2647 210.313Z" fill="#68C8BC"/>
<g opacity="0.1">
<path opacity="0.1" d="M98.2647 210.313C94.8151 216.56 91.9352 228.454 95.2265 237.975C97.0779 243.241 121.81 270.444 139.232 268.167C169.297 264.26 197.147 224.358 197.147 224.358L157.303 201.631L98.2647 210.313Z" fill="black"/>
</g>
<path d="M143.22 117.144C147.809 116.78 153.252 116.749 158.41 126.159C162.446 133.481 164.629 136.518 164.471 146.513C164.36 153.725 159.93 162.408 158.933 168.165C157.936 173.922 157.429 199.369 157.35 201.631C153.519 205.949 148.831 209.425 143.585 211.837C138.339 214.249 132.648 215.545 126.874 215.643C106.889 216.181 98.3121 210.313 98.3121 210.313L113.566 182.937L109.579 127.282L124.5 118.362L143.22 117.144Z" fill="#68C8BC"/>
<g opacity="0.5">
<path opacity="0.5" d="M143.22 117.144C147.809 116.78 153.252 116.749 158.41 126.159C162.446 133.481 164.629 136.518 164.471 146.513C164.36 153.725 159.93 162.408 158.933 168.165C157.936 173.922 157.429 199.369 157.35 201.631C153.519 205.949 148.831 209.425 143.585 211.837C138.339 214.249 132.648 215.545 126.874 215.643C106.889 216.181 98.3121 210.313 98.3121 210.313L113.566 182.937L109.579 127.282L124.5 118.362L143.22 117.144Z" fill="white"/>
</g>
<path d="M151.464 63.4502C154.787 65.4271 162.825 73.7777 162.43 91.3172C162.082 106.168 157.271 109.853 154.85 110.897C152.429 111.941 147.761 111.324 143.22 110.565V119.485C143.22 119.485 149.549 126.76 149.09 130.84C148.631 134.921 140.039 135.901 134.184 131.9C130.376 129.167 127.108 125.751 124.548 121.825V100.285C124.548 100.285 121.478 104.365 116.478 101.044C111.477 97.7225 111.272 89.4826 114.183 86.5251C117.095 83.5676 123.377 84.5165 124.548 88.5969C124.548 88.5969 130.719 90.1785 140.371 84.8644C150.024 79.5504 150.831 69.2229 151.464 63.4502Z" fill="#FFA8A7"/>
<path d="M145.831 87.5847C145.833 87.9503 145.728 88.3087 145.529 88.6152C145.33 88.9218 145.045 89.1631 144.709 89.3091C144.374 89.4551 144.003 89.4994 143.642 89.4366C143.282 89.3737 142.948 89.2064 142.682 88.9555C142.416 88.7046 142.23 88.3811 142.146 88.0251C142.062 87.6692 142.085 87.2965 142.211 86.9534C142.338 86.6103 142.562 86.3118 142.857 86.0951C143.151 85.8784 143.503 85.7529 143.869 85.7343C144.119 85.7259 144.369 85.7672 144.604 85.8558C144.838 85.9444 145.053 86.0787 145.236 86.2507C145.418 86.4228 145.564 86.6292 145.667 86.8582C145.769 87.0872 145.825 87.3341 145.831 87.5847Z" fill="#37474F"/>
<path d="M142.46 81.8594L138.568 84.2634C138.272 83.7359 138.188 83.1162 138.332 82.5292C138.476 81.9423 138.837 81.4316 139.343 81.1003C139.597 80.9427 139.879 80.8372 140.174 80.79C140.469 80.7429 140.771 80.755 141.061 80.8257C141.351 80.8964 141.625 81.0242 141.865 81.2017C142.105 81.3792 142.307 81.6028 142.46 81.8594Z" fill="#37474F"/>
<path d="M146.321 100.174L150.72 101.581C150.644 101.875 150.509 102.149 150.323 102.389C150.138 102.629 149.906 102.829 149.642 102.976C149.377 103.124 149.085 103.217 148.784 103.249C148.482 103.281 148.178 103.252 147.888 103.163C147.286 102.97 146.785 102.549 146.492 101.989C146.198 101.43 146.137 100.778 146.321 100.174Z" fill="#F28F8F"/>
<path d="M160.214 86.2404C160.234 86.4889 160.203 86.7388 160.125 86.9756C160.047 87.2124 159.923 87.4313 159.76 87.6196C159.596 87.808 159.397 87.962 159.174 88.0727C158.95 88.1835 158.707 88.2488 158.458 88.2648C157.951 88.2776 157.46 88.0908 157.09 87.7446C156.72 87.3984 156.501 86.9206 156.48 86.4144C156.469 86.1693 156.505 85.9244 156.589 85.6936C156.672 85.4628 156.8 85.2506 156.965 85.0693C157.131 84.8879 157.33 84.7408 157.552 84.6365C157.774 84.5321 158.015 84.4726 158.26 84.4611C158.505 84.4497 158.75 84.4867 158.981 84.5699C159.212 84.6531 159.424 84.781 159.606 84.9462C159.787 85.1114 159.934 85.3108 160.039 85.5328C160.143 85.7549 160.203 85.9953 160.214 86.2404Z" fill="#37474F"/>
<path d="M151.464 85.1649L151.765 96.4098L157.683 94.5752L151.464 85.1649Z" fill="#F28F8F"/>
<path d="M143.22 110.565C139.438 110.138 131.858 107.844 130.197 105.298C130.52 106.924 131.419 108.378 132.729 109.394C135.213 111.751 143.22 113.459 143.22 113.459V110.565Z" fill="#F28F8F"/>
<path d="M149.138 62.1691C149.138 62.1691 152.429 73.6037 148.489 84.3109C148.489 84.3109 162.825 85.2123 163.616 74.3787C163.616 74.3787 162.92 65.4587 156.575 60.1447L149.138 62.1691Z" fill="#37474F"/>
<path d="M115.908 49.2794C120.924 53.7394 116.81 58.0571 112.015 63.4343C107.221 68.8116 103.566 73.1925 98.5495 68.7167C96.1909 66.3545 94.8263 63.1796 94.7357 59.8436C94.645 56.5075 95.8352 53.2633 98.0621 50.7766C100.289 48.2899 103.384 46.7493 106.711 46.4709C110.038 46.1925 113.346 47.1974 115.956 49.2794H115.908Z" fill="#37474F"/>
<path d="M221.768 367.899V476.014C221.796 476.49 221.934 476.953 222.174 477.365C222.413 477.777 222.746 478.127 223.145 478.387L226.832 480.506C227.255 480.724 227.725 480.837 228.201 480.837C228.677 480.837 229.146 480.724 229.57 480.506L233.256 478.387C233.656 478.127 233.989 477.777 234.228 477.365C234.467 476.953 234.606 476.49 234.633 476.014V367.899C234.633 367.48 234.466 367.078 234.17 366.781C233.873 366.484 233.47 366.318 233.051 366.318H223.351C222.931 366.318 222.529 366.484 222.232 366.781C221.935 367.078 221.768 367.48 221.768 367.899Z" fill="#263238"/>
<path d="M233.003 366.318H229.839C229.419 366.318 229.016 366.484 228.72 366.781C228.423 367.078 228.256 367.48 228.256 367.899V479.715C228.256 480.585 228.873 480.949 229.617 480.506L233.304 478.387C233.704 478.127 234.036 477.777 234.276 477.365C234.515 476.953 234.653 476.49 234.681 476.014V367.899C234.681 367.683 234.637 367.47 234.552 367.271C234.466 367.073 234.341 366.894 234.184 366.746C234.027 366.598 233.841 366.484 233.638 366.41C233.435 366.336 233.219 366.305 233.003 366.318Z" fill="#455A64"/>
<path d="M388.898 271.456V379.571C388.926 380.045 389.063 380.506 389.3 380.917C389.536 381.329 389.864 381.68 390.259 381.944L393.946 384.079C394.375 384.286 394.846 384.394 395.323 384.394C395.799 384.394 396.27 384.286 396.699 384.079L400.386 381.944C400.781 381.68 401.109 381.329 401.346 380.917C401.582 380.506 401.719 380.045 401.747 379.571V271.456C401.747 271.037 401.58 270.634 401.284 270.338C400.987 270.041 400.584 269.875 400.165 269.875H390.48C390.061 269.875 389.658 270.041 389.362 270.338C389.065 270.634 388.898 271.037 388.898 271.456Z" fill="#263238"/>
<path d="M400.164 269.875H396.905C396.485 269.875 396.083 270.041 395.786 270.338C395.489 270.634 395.322 271.037 395.322 271.456V383.288C395.322 384.158 395.94 384.506 396.699 384.079L400.386 381.944C400.781 381.68 401.109 381.329 401.345 380.917C401.582 380.506 401.719 380.045 401.747 379.571V271.456C401.747 271.037 401.58 270.634 401.283 270.338C400.987 270.041 400.584 269.875 400.164 269.875Z" fill="#455A64"/>
<path d="M73.9437 282.59V390.705C73.9691 391.18 74.1054 391.641 74.3418 392.053C74.5781 392.465 74.9078 392.816 75.3045 393.078L78.9914 395.213C79.4207 395.42 79.8913 395.528 80.3681 395.528C80.8448 395.528 81.3154 395.42 81.7447 395.213L85.4316 393.078C85.83 392.818 86.1611 392.468 86.3977 392.055C86.6343 391.643 86.7696 391.18 86.7925 390.705V282.59C86.7925 282.171 86.6258 281.769 86.329 281.472C86.0323 281.175 85.6298 281.009 85.2101 281.009H75.526C75.1064 281.009 74.7039 281.175 74.4071 281.472C74.1104 281.769 73.9437 282.171 73.9437 282.59Z" fill="#37474F"/>
<path d="M85.2101 281.009H81.9505C81.5308 281.009 81.1283 281.175 80.8316 281.472C80.5348 281.769 80.3681 282.171 80.3681 282.59V394.422C80.3681 395.292 80.9852 395.64 81.7448 395.213L85.4317 393.078C85.8301 392.818 86.1612 392.468 86.3977 392.055C86.6343 391.643 86.7696 391.18 86.7925 390.705V282.59C86.7925 282.171 86.6258 281.769 86.329 281.472C86.0323 281.175 85.6298 281.009 85.2101 281.009Z" fill="#263238"/>
<path d="M225.471 375.855L70.2567 286.291C69.4579 285.773 68.7933 285.072 68.3175 284.248C67.8416 283.423 67.5681 282.497 67.5192 281.547V280.455C67.5718 279.505 67.847 278.581 68.3225 277.757C68.798 276.933 69.4605 276.232 70.2567 275.711L244.744 175.029C245.596 174.601 246.536 174.377 247.49 174.377C248.443 174.377 249.383 174.601 250.235 175.029L405.481 264.592C406.28 265.111 406.945 265.811 407.421 266.636C407.896 267.461 408.17 268.386 408.219 269.337V270.428C408.169 271.379 407.895 272.304 407.419 273.128C406.943 273.953 406.279 274.653 405.481 275.173L230.946 375.855C230.1 376.292 229.161 376.519 228.209 376.519C227.256 376.519 226.317 376.292 225.471 375.855Z" fill="#37474F"/>
<path d="M228.256 184.566L70.2567 275.711C69.4605 276.232 68.798 276.933 68.3225 277.757C67.847 278.581 67.5718 279.505 67.5192 280.455V281.547C67.5681 282.497 67.8416 283.423 68.3175 284.248C68.7933 285.072 69.4579 285.773 70.2567 286.291L225.471 375.855C226.31 376.311 227.254 376.54 228.209 376.519L228.256 184.566Z" fill="#263238"/>
<path d="M225.471 368.437L70.2567 278.874C68.6744 278.004 68.6744 276.596 70.2567 275.711L244.744 175.029C245.596 174.601 246.536 174.377 247.49 174.377C248.443 174.377 249.383 174.601 250.235 175.029L405.481 264.592C405.817 264.7 406.109 264.911 406.317 265.195C406.524 265.479 406.636 265.822 406.636 266.174C406.636 266.526 406.524 266.869 406.317 267.153C406.109 267.437 405.817 267.648 405.481 267.755L230.946 368.437C230.1 368.874 229.161 369.102 228.209 369.102C227.256 369.102 226.317 368.874 225.471 368.437Z" fill="#455A64"/>
<path d="M153.268 250.437V252.019C153.272 252.815 153.483 253.596 153.879 254.286C154.276 254.977 154.845 255.552 155.531 255.957L198.792 280.835C199.481 281.229 200.261 281.436 201.055 281.436C201.849 281.436 202.629 281.229 203.318 280.835L282.674 234.97C283.365 234.574 283.94 234.003 284.34 233.315C284.741 232.626 284.952 231.844 284.952 231.047V229.94L201.087 278.352L153.268 250.437Z" fill="#E6E6E6"/>
<path d="M284.952 230.019L237.893 202.88C237.485 202.639 237.021 202.512 236.548 202.512C236.075 202.512 235.61 202.639 235.203 202.88L153.568 249.979C153.476 250.031 153.4 250.107 153.347 250.199C153.293 250.29 153.265 250.395 153.265 250.501C153.265 250.607 153.293 250.711 153.347 250.802C153.4 250.894 153.476 250.97 153.568 251.022L201.039 278.431L284.952 230.019Z" fill="#FAFAFA"/>
<path d="M200.628 274.445L175.247 259.816L249.46 216.987L274.968 231.554L200.628 274.445Z" fill="#E6E6E6"/>
<path d="M188.159 233.752L188.618 234.021L201.055 241.201L223.177 228.422L223.636 228.169L210.739 220.72L188.159 233.752Z" fill="#E0E0E0"/>
<path d="M176.798 171.47C176.798 171.47 189.029 181.576 203.128 192.758C209.458 197.803 216.547 202.88 222.37 203.513C226.99 204.003 235.203 204.335 236.959 205.948C238.716 207.561 243.795 215.975 245.441 218.695C247.086 221.416 245.995 227.789 240.694 228.185C235.393 228.58 233.146 224.8 230.93 222.444C229.715 221.13 228.374 219.939 226.927 218.885C226.927 218.885 221.405 219.186 218.271 217.304C215.138 215.422 213.35 214.346 213.35 214.346C202.369 208.194 174.598 192.805 165.658 185.562" fill="#FFA8A7"/>
<path d="M188.618 234.021L201.055 241.201L223.177 228.422L210.739 221.258L188.618 234.021Z" fill="#E6E6E6"/>
<path d="M201.055 278.431V281.452C201.849 281.451 202.629 281.244 203.318 280.851L282.674 234.986C283.365 234.59 283.94 234.019 284.34 233.33C284.741 232.642 284.952 231.86 284.952 231.063V229.956L201.055 278.431Z" fill="#E0E0E0"/>
<path d="M202.337 279.095C203.087 279.387 203.892 279.508 204.695 279.448C205.497 279.387 206.276 279.148 206.973 278.747L285.981 233.151C286.666 232.758 287.256 232.218 287.707 231.57C288.158 230.921 288.461 230.181 288.592 229.403L297.247 177.844C297.377 176.984 297.302 176.106 297.027 175.282C296.752 174.457 296.285 173.709 295.665 173.099L213.556 220.546C213.051 220.841 212.616 221.244 212.283 221.724C211.949 222.205 211.725 222.753 211.625 223.33L202.337 279.095Z" fill="#EBEBEB"/>
<path d="M201.055 278.431L201.593 278.747C201.835 278.876 202.083 278.992 202.337 279.095L211.689 223.361C211.788 222.785 212.013 222.237 212.346 221.756C212.68 221.275 213.114 220.873 213.619 220.578L295.728 173.131C295.397 172.805 295.025 172.523 294.621 172.293L212.338 219.739C211.832 220.035 211.398 220.437 211.064 220.918C210.731 221.399 210.507 221.946 210.407 222.523L201.055 278.431Z" fill="#F5F5F5"/>
<path d="M246.833 231.506C247.419 228.058 250.979 223.472 254.745 221.273C258.511 219.075 261.201 220.087 260.616 223.535C260.03 226.983 256.47 231.569 252.704 233.768C248.938 235.966 246.263 234.97 246.833 231.506Z" fill="#E0E0E0"/>
<path d="M151.068 281.009L144.644 284.71L151.068 288.426L157.493 284.71L151.068 281.009Z" fill="#68C8BC"/>
<path d="M120.655 291.368L143.631 278.115C144.058 277.91 144.526 277.803 145 277.803C145.474 277.803 145.941 277.91 146.369 278.115L162.904 287.604C163.304 287.864 163.637 288.214 163.876 288.626C164.115 289.038 164.254 289.501 164.281 289.976V290.514C164.258 290.99 164.12 291.455 163.881 291.867C163.641 292.28 163.307 292.629 162.904 292.886L139.944 306.156C139.515 306.363 139.044 306.47 138.568 306.47C138.091 306.47 137.62 306.363 137.191 306.156L120.655 296.666C120.256 296.406 119.923 296.056 119.684 295.644C119.444 295.232 119.306 294.77 119.279 294.294V293.74C119.306 293.265 119.444 292.802 119.684 292.39C119.923 291.978 120.256 291.628 120.655 291.368Z" fill="#68C8BC"/>
<path d="M137.143 302.439L120.655 292.95C119.896 292.523 119.896 291.811 120.655 291.368L143.631 278.115C144.058 277.91 144.526 277.803 145 277.803C145.474 277.803 145.941 277.91 146.369 278.115L162.904 287.604C163.068 287.661 163.21 287.768 163.311 287.91C163.411 288.052 163.465 288.221 163.465 288.395C163.465 288.568 163.411 288.738 163.311 288.879C163.21 289.021 163.068 289.128 162.904 289.185L139.897 302.439C139.471 302.657 138.999 302.77 138.52 302.77C138.041 302.77 137.57 302.657 137.143 302.439Z" fill="#68C8BC"/>
<g opacity="0.3">
<path opacity="0.3" d="M137.143 302.439L120.655 292.95C119.896 292.523 119.896 291.811 120.655 291.368L143.631 278.115C144.058 277.91 144.526 277.803 145 277.803C145.474 277.803 145.941 277.91 146.369 278.115L162.904 287.604C163.068 287.661 163.21 287.768 163.311 287.91C163.411 288.052 163.465 288.221 163.465 288.395C163.465 288.568 163.411 288.738 163.311 288.879C163.21 289.021 163.068 289.128 162.904 289.185L139.897 302.439C139.471 302.657 138.999 302.77 138.52 302.77C138.041 302.77 137.57 302.657 137.143 302.439Z" fill="white"/>
</g>
<path d="M143.283 280.756C142.365 281.293 142.365 282.147 143.283 282.669C143.797 282.934 144.366 283.073 144.945 283.073C145.523 283.073 146.092 282.934 146.606 282.669C147.524 282.147 147.524 281.293 146.606 280.756C146.09 280.498 145.521 280.364 144.945 280.364C144.368 280.364 143.799 280.498 143.283 280.756Z" fill="#68C8BC"/>
<path d="M136.859 284.472C135.941 284.994 135.941 285.848 136.859 286.386C137.375 286.644 137.943 286.778 138.52 286.778C139.097 286.778 139.666 286.644 140.182 286.386C141.099 285.848 141.099 284.994 140.182 284.472C139.668 284.207 139.098 284.069 138.52 284.069C137.942 284.069 137.372 284.207 136.859 284.472Z" fill="#68C8BC"/>
<g opacity="0.2">
<path opacity="0.2" d="M143.283 280.756C142.365 281.293 142.365 282.147 143.283 282.669C143.797 282.934 144.366 283.073 144.945 283.073C145.523 283.073 146.092 282.934 146.606 282.669C147.524 282.147 147.524 281.293 146.606 280.756C146.09 280.498 145.521 280.364 144.945 280.364C144.368 280.364 143.799 280.498 143.283 280.756Z" fill="black"/>
</g>
<g opacity="0.2">
<path opacity="0.2" d="M136.859 284.472C135.941 284.994 135.941 285.848 136.859 286.386C137.375 286.644 137.943 286.778 138.52 286.778C139.097 286.778 139.666 286.644 140.182 286.386C141.099 285.848 141.099 284.994 140.182 284.472C139.668 284.207 139.098 284.069 138.52 284.069C137.942 284.069 137.372 284.207 136.859 284.472Z" fill="black"/>
</g>
<path d="M121.415 299.086C121.274 299.086 121.136 299.05 121.014 298.981C120.892 298.911 120.79 298.811 120.718 298.691C120.62 298.507 120.596 298.293 120.653 298.092C120.709 297.892 120.84 297.721 121.019 297.615L123.503 296.176C123.687 296.071 123.903 296.043 124.107 296.096C124.311 296.149 124.487 296.28 124.595 296.461C124.648 296.55 124.682 296.65 124.696 296.753C124.709 296.857 124.702 296.962 124.674 297.062C124.646 297.163 124.598 297.256 124.533 297.338C124.467 297.419 124.386 297.487 124.295 297.536L121.81 298.975C121.691 299.049 121.554 299.087 121.415 299.086Z" fill="#68C8BC"/>
<path d="M121.415 299.877C120.995 299.877 120.593 299.71 120.296 299.414C119.999 299.117 119.832 298.715 119.832 298.295V273.591C119.832 273.172 119.999 272.77 120.296 272.473C120.593 272.176 120.995 272.01 121.415 272.01C121.834 272.01 122.237 272.176 122.534 272.473C122.83 272.77 122.997 273.172 122.997 273.591V298.295C122.997 298.715 122.83 299.117 122.534 299.414C122.237 299.71 121.834 299.877 121.415 299.877Z" fill="#68C8BC"/>
<g opacity="0.2">
<path opacity="0.2" d="M121.415 299.086C121.274 299.086 121.136 299.05 121.014 298.981C120.892 298.911 120.79 298.811 120.718 298.691C120.62 298.507 120.596 298.293 120.653 298.092C120.709 297.892 120.84 297.721 121.019 297.615L123.503 296.176C123.687 296.071 123.903 296.043 124.107 296.096C124.311 296.149 124.487 296.28 124.595 296.461C124.648 296.55 124.682 296.65 124.696 296.753C124.709 296.857 124.702 296.962 124.674 297.062C124.646 297.163 124.598 297.256 124.533 297.338C124.467 297.419 124.386 297.487 124.295 297.536L121.81 298.975C121.691 299.049 121.554 299.087 121.415 299.086Z" fill="black"/>
<path opacity="0.2" d="M121.415 299.877C120.995 299.877 120.593 299.71 120.296 299.414C119.999 299.117 119.832 298.715 119.832 298.295V273.591C119.832 273.172 119.999 272.77 120.296 272.473C120.593 272.176 120.995 272.01 121.415 272.01C121.834 272.01 122.237 272.176 122.534 272.473C122.83 272.77 122.997 273.172 122.997 273.591V298.295C122.997 298.715 122.83 299.117 122.534 299.414C122.237 299.71 121.834 299.877 121.415 299.877Z" fill="black"/>
</g>
<path d="M164.234 296.287C163.679 296.29 163.133 296.149 162.651 295.875L158.948 293.74C158.858 293.689 158.779 293.621 158.715 293.539C158.651 293.457 158.605 293.363 158.578 293.263C158.552 293.162 158.546 293.058 158.56 292.955C158.575 292.852 158.61 292.754 158.664 292.665C158.77 292.486 158.941 292.354 159.141 292.298C159.342 292.242 159.556 292.266 159.74 292.364L163.442 294.499C163.665 294.632 163.919 294.701 164.178 294.701C164.437 294.701 164.691 294.632 164.914 294.499L195.58 276.96C195.671 276.908 195.77 276.874 195.874 276.861C195.977 276.848 196.082 276.855 196.183 276.882C196.283 276.909 196.378 276.956 196.46 277.019C196.543 277.083 196.612 277.162 196.664 277.253C196.716 277.343 196.75 277.443 196.763 277.546C196.777 277.649 196.769 277.754 196.742 277.855C196.715 277.955 196.668 278.05 196.605 278.132C196.541 278.215 196.462 278.284 196.371 278.336L165.753 295.875C165.291 296.143 164.767 296.285 164.234 296.287Z" fill="#F0F0F0"/>
<path d="M140.308 269.416C140.311 270.28 140.058 271.125 139.58 271.845C139.102 272.565 138.421 273.127 137.623 273.46C136.825 273.793 135.947 273.882 135.099 273.715C134.25 273.548 133.471 273.134 132.858 272.524C132.246 271.914 131.828 271.136 131.659 270.289C131.489 269.442 131.574 268.564 131.904 267.765C132.234 266.966 132.794 266.284 133.513 265.803C134.231 265.323 135.076 265.067 135.941 265.067C137.096 265.067 138.205 265.524 139.023 266.34C139.842 267.155 140.304 268.261 140.308 269.416Z" fill="#68C8BC"/>
<path d="M135.941 257.934C133.861 257.935 131.82 258.501 130.037 259.57C128.253 260.64 126.794 262.173 125.814 264.007C125.625 264.362 125.567 264.773 125.651 265.166C125.735 265.56 125.955 265.911 126.273 266.158C126.466 266.31 126.691 266.418 126.93 266.474C127.17 266.53 127.419 266.534 127.66 266.484C127.901 266.434 128.128 266.333 128.326 266.186C128.523 266.04 128.687 265.852 128.804 265.636C129.485 264.337 130.509 263.249 131.764 262.49C133.019 261.731 134.458 261.33 135.925 261.33C137.392 261.33 138.831 261.731 140.086 262.49C141.342 263.249 142.365 264.337 143.046 265.636C143.163 265.855 143.327 266.044 143.526 266.193C143.725 266.341 143.954 266.443 144.197 266.493C144.44 266.543 144.691 266.539 144.933 266.481C145.174 266.423 145.399 266.313 145.593 266.158C145.914 265.913 146.136 265.562 146.22 265.167C146.304 264.773 146.245 264.361 146.052 264.007C145.075 262.175 143.618 260.642 141.837 259.572C140.057 258.502 138.019 257.936 135.941 257.934Z" fill="#68C8BC"/>
<path d="M135.941 250.975C132.841 250.975 129.791 251.758 127.074 253.251C124.358 254.744 122.063 256.899 120.402 259.515C120.164 259.873 120.068 260.305 120.132 260.729C120.197 261.153 120.417 261.538 120.75 261.809C120.939 261.956 121.157 262.062 121.389 262.119C121.621 262.177 121.863 262.185 122.099 262.143C122.335 262.102 122.559 262.011 122.757 261.877C122.956 261.743 123.124 261.569 123.25 261.366C124.608 259.24 126.479 257.49 128.691 256.278C130.904 255.066 133.386 254.431 135.909 254.431C138.432 254.431 140.915 255.066 143.127 256.278C145.34 257.49 147.211 259.24 148.568 261.366C148.693 261.568 148.86 261.742 149.057 261.876C149.254 262.01 149.477 262.101 149.711 262.142C149.946 262.184 150.186 262.176 150.418 262.119C150.649 262.061 150.865 261.955 151.052 261.809C151.388 261.54 151.611 261.157 151.679 260.733C151.746 260.308 151.652 259.874 151.416 259.515C149.761 256.908 147.476 254.759 144.772 253.266C142.067 251.774 139.03 250.986 135.941 250.975Z" fill="#68C8BC"/>
<path d="M163.933 242.166C152.951 236.014 129.77 219.486 120.813 212.29C118.756 210.63 116.066 209.633 114.658 203.181C113.709 198.784 102.6 161.475 100.591 148.079C98.6286 134.984 104.578 130.682 109.626 127.345C116.857 133.054 117.126 140.124 120.386 152.096C123.978 165.239 132.001 198.151 132.001 198.151C132.001 198.151 142.555 208.621 154.565 220.293C160.388 225.971 167.224 230.652 172.984 231.269C177.605 231.775 185.817 232.091 187.573 233.72C189.33 235.349 194.409 243.732 196.055 246.373C197.701 249.014 196.609 255.483 191.308 255.862C186.007 256.242 183.76 252.462 181.545 250.121C180.331 248.801 178.99 247.603 177.541 246.547C177.541 246.547 172.019 246.863 168.886 244.965C165.753 243.067 163.933 242.166 163.933 242.166Z" fill="#FFA8A7"/>
<path d="M246.169 171.344C240.713 169.604 234.851 169.604 229.395 171.344C224.854 173.083 224.854 175.883 229.395 177.67C234.851 179.409 240.713 179.409 246.169 177.67C250.884 175.914 250.884 173.083 246.169 171.344Z" fill="#E0E0E0"/>
<path d="M250.077 163.721H225.614L227.465 192.537C227.576 193.58 228.557 194.608 230.424 195.415C235.17 197.124 240.363 197.124 245.108 195.415C247.039 194.608 248.052 193.58 248.162 192.537L250.077 163.721Z" fill="#68C8BC"/>
<path d="M225.614 163.752L225.993 169.604C226.634 170.038 227.318 170.404 228.035 170.695C234.347 172.894 241.217 172.894 247.529 170.695L248.178 170.395C248.724 170.146 249.253 169.861 249.761 169.541L250.125 163.721L225.614 163.752Z" fill="#68C8BC"/>
<path opacity="0.1" d="M225.614 163.752L225.993 169.604C226.634 170.038 227.318 170.404 228.035 170.695C234.347 172.894 241.217 172.894 247.529 170.695L248.178 170.395C248.724 170.146 249.253 169.861 249.761 169.541L250.125 163.721L225.614 163.752Z" fill="black"/>
<path d="M251.628 164.575V160.099H248.827C248.447 159.909 248.02 159.719 247.577 159.53C241.262 157.347 234.397 157.347 228.082 159.53C227.639 159.719 227.244 159.909 226.88 160.099H224.11V164.511C224.11 165.951 225.44 167.39 228.082 168.481C234.397 170.664 241.262 170.664 247.577 168.481C250.251 167.437 251.628 166.014 251.628 164.575Z" fill="#68C8BC"/>
<g opacity="0.3">
<path opacity="0.3" d="M251.628 164.575V160.099H248.827C248.447 159.909 248.02 159.719 247.577 159.53C241.262 157.347 234.397 157.347 228.082 159.53C227.639 159.719 227.244 159.909 226.88 160.099H224.11V164.511C224.11 165.951 225.44 167.39 228.082 168.481C234.397 170.664 241.262 170.664 247.577 168.481C250.251 167.437 251.628 166.014 251.628 164.575Z" fill="white"/>
</g>
<path d="M247.529 156.208C241.217 154.01 234.347 154.01 228.035 156.208C222.75 158.391 222.75 161.949 228.035 164.116C234.347 166.314 241.217 166.314 247.529 164.116C252.989 161.949 252.989 158.391 247.529 156.208Z" fill="#68C8BC"/>
<path opacity="0.1" d="M247.529 156.208C241.217 154.01 234.347 154.01 228.035 156.208C222.75 158.391 222.75 161.949 228.035 164.116C234.347 166.314 241.217 166.314 247.529 164.116C252.989 161.949 252.989 158.391 247.529 156.208Z" fill="white"/>
<path d="M245.124 156.73C240.353 155.244 235.243 155.244 230.472 156.73C226.484 158.233 226.484 160.653 230.472 162.155C235.24 163.657 240.356 163.657 245.124 162.155C249.238 160.653 249.238 158.233 245.124 156.73Z" fill="#68C8BC"/>
<path opacity="0.3" d="M245.124 156.73C240.353 155.244 235.243 155.244 230.472 156.73C226.484 158.233 226.484 160.653 230.472 162.155C235.24 163.657 240.356 163.657 245.124 162.155C249.238 160.653 249.238 158.233 245.124 156.73Z" fill="white"/>
<path d="M248.115 158.929L247.007 154.911H228.683L227.576 158.929H248.115Z" fill="#68C8BC"/>
<path opacity="0.3" d="M248.115 158.929L247.007 154.911H228.683L227.576 158.929H248.115Z" fill="white"/>
<path d="M244.317 152.855C240.072 151.527 235.523 151.527 231.278 152.855C227.75 154.184 227.75 156.335 231.278 157.679C235.523 159.007 240.072 159.007 244.317 157.679C247.972 156.335 247.972 154.184 244.317 152.855Z" fill="#68C8BC"/>
<path opacity="0.1" d="M245.789 155.259C245.789 155.259 245.694 155.481 245.393 155.718C244.909 156.053 244.375 156.309 243.811 156.477C241.829 157.123 239.755 157.438 237.671 157.41C235.624 157.449 233.585 157.139 231.642 156.493C231.124 156.314 230.637 156.052 230.202 155.718C229.902 155.481 229.823 155.307 229.823 155.259C229.823 155.212 230.139 154.611 231.642 154.042C233.585 153.396 235.624 153.086 237.671 153.124C239.754 153.091 241.828 153.401 243.811 154.042C245.409 154.595 245.789 155.149 245.789 155.259Z" fill="#68C8BC"/>
<path opacity="0.1" d="M245.789 155.259C245.789 155.259 245.694 155.481 245.393 155.718C244.909 156.053 244.375 156.309 243.811 156.477C241.829 157.123 239.755 157.438 237.671 157.41C235.624 157.449 233.585 157.139 231.642 156.493C231.124 156.314 230.637 156.052 230.202 155.718C229.902 155.481 229.823 155.307 229.823 155.259C229.823 155.212 230.139 154.611 231.642 154.042C233.585 153.396 235.624 153.086 237.671 153.124C239.754 153.091 241.828 153.401 243.811 154.042C245.409 154.595 245.789 155.149 245.789 155.259Z" fill="black"/>
<path d="M245.393 155.718C244.909 156.053 244.375 156.309 243.811 156.477C241.829 157.123 239.755 157.438 237.671 157.41C235.624 157.449 233.585 157.139 231.642 156.493C231.124 156.314 230.637 156.052 230.202 155.718C230.639 155.39 231.125 155.134 231.642 154.959C233.585 154.313 235.624 154.003 237.671 154.042C239.754 154.009 241.828 154.319 243.811 154.959C244.375 155.127 244.909 155.383 245.393 155.718Z" fill="#68C8BC"/>
<path d="M241.722 155.797C241.932 155.658 242.167 155.563 242.415 155.517C242.662 155.471 242.916 155.475 243.162 155.528C243.431 155.686 243.162 156.05 242.687 156.351C242.477 156.495 242.239 156.595 241.989 156.644C241.739 156.693 241.481 156.69 241.232 156.635C240.915 156.477 241.184 156.113 241.722 155.797Z" fill="#68C8BC"/>
<path opacity="0.1" d="M241.722 155.797C241.932 155.658 242.167 155.563 242.415 155.517C242.662 155.471 242.916 155.475 243.162 155.528C243.431 155.686 243.162 156.05 242.687 156.351C242.477 156.495 242.239 156.595 241.989 156.644C241.739 156.693 241.481 156.69 241.232 156.635C240.915 156.477 241.184 156.113 241.722 155.797Z" fill="black"/>
<path d="M226.674 184.929C226.674 185.989 227.75 187.065 229.839 187.887C234.987 189.52 240.514 189.52 245.662 187.887C247.878 187.065 248.985 186.005 248.985 184.929L249.681 174.491C249.681 175.614 248.495 176.753 246.137 177.654C240.681 179.394 234.819 179.394 229.364 177.654C227.085 176.784 225.946 175.646 225.946 174.491L226.674 184.929Z" fill="#68C8BC"/>
<path opacity="0.4" d="M226.674 184.929C226.674 185.989 227.75 187.065 229.839 187.887C234.987 189.52 240.514 189.52 245.662 187.887C247.878 187.065 248.985 186.005 248.985 184.929L249.681 174.491C249.681 175.614 248.495 176.753 246.137 177.654C240.681 179.394 234.819 179.394 229.364 177.654C227.085 176.784 225.946 175.646 225.946 174.491L226.674 184.929Z" fill="white"/>
<path d="M236.358 185.546C236.01 184.976 235.698 184.384 235.424 183.775C234.823 182.673 233.855 181.817 232.687 181.355C232.608 181.332 232.524 181.334 232.447 181.363C232.37 181.391 232.304 181.444 232.26 181.513C232.033 182.226 232.006 182.987 232.181 183.714C232.356 184.441 232.727 185.106 233.254 185.637C233.781 186.168 234.443 186.545 235.168 186.727C235.894 186.909 236.656 186.889 237.371 186.669C237.371 186.669 237.45 186.511 237.371 186.479C236.977 186.236 236.633 185.919 236.358 185.546Z" fill="#68C8BC"/>
<path d="M233.351 181.039C233.982 181.283 234.562 181.642 235.06 182.098C235.591 182.569 236.017 183.145 236.31 183.791C236.647 184.612 237.193 185.332 237.893 185.878C237.929 185.905 237.97 185.925 238.014 185.935C238.057 185.946 238.103 185.948 238.147 185.94C238.192 185.933 238.234 185.917 238.272 185.892C238.31 185.868 238.342 185.836 238.368 185.799C238.747 185.08 238.87 184.253 238.718 183.454C238.565 182.656 238.146 181.932 237.529 181.403C237.016 180.822 236.335 180.416 235.58 180.243C234.825 180.07 234.034 180.138 233.32 180.438C233.264 180.467 233.218 180.512 233.187 180.567C233.156 180.622 233.141 180.685 233.144 180.748C233.148 180.811 233.169 180.872 233.205 180.924C233.242 180.975 233.293 181.015 233.351 181.039Z" fill="#68C8BC"/>
</svg>
